# Blender v2.80 (sub 75) OBJ File: 'Anvil.blend'
# www.blender.org
o Plane
v -0.608776 0.000000 1.000000
v 0.608776 0.000000 1.000000
v -0.608776 0.000000 -1.000000
v 0.608776 0.000000 -1.000000
v -0.608776 0.244725 -1.000000
v -0.608776 0.244725 1.000000
v 0.608776 0.244725 1.000000
v 0.608776 0.244725 -1.000000
v -0.481848 0.552233 -0.791503
v -0.481848 0.552233 0.791503
v 0.481848 0.552233 0.791503
v 0.481848 0.552233 -0.791503
v -0.481848 0.872629 -0.791503
v -0.481848 0.872629 0.791503
v 0.481848 0.872629 0.791503
v 0.481848 0.872629 -0.791503
v -0.691564 1.233586 -1.356940
v -0.691564 1.233586 1.356940
v 0.691564 1.233586 1.356940
v 0.691564 1.233586 -1.356940
v -0.691564 2.409750 -1.356940
v -0.691564 2.409750 1.356940
v 0.691564 2.409750 1.356940
v 0.691564 2.409750 -1.356940
v -0.487672 1.406969 1.356940
v 0.487672 1.406969 1.356940
v -0.487672 2.236368 1.356940
v 0.487672 2.236368 1.356940
v -0.387663 1.579399 1.853296
v 0.387663 1.579399 1.853296
v -0.387663 2.238709 1.853296
v 0.387663 2.238709 1.853296
v -0.213422 1.996948 2.431447
v 0.213422 1.996948 2.431447
v -0.213422 2.359922 2.431447
v 0.213422 2.359922 2.431447
v 0.373095 1.975585 -1.944775
v -0.373095 1.975585 -1.944775
v 0.373095 2.409750 -1.944775
v -0.373095 2.409750 -1.944775
v -0.483208 1.773057 -1.650858
v 0.483208 1.773057 -1.650858
v -0.483208 2.409750 -1.650858
v 0.483208 2.409750 -1.650858
vt 0.000000 0.000000
vt 0.000000 1.000000
vt 1.000000 1.000000
vt 1.000000 0.000000
vt 1.000000 1.000000
vt 0.000000 1.000000
vt 0.000000 1.000000
vt 1.000000 1.000000
vt 1.000000 0.000000
vt 0.000000 0.000000
vt 0.000000 0.000000
vt 1.000000 0.000000
vt 1.000000 0.000000
vt 0.000000 0.000000
vt 1.000000 1.000000
vt 1.000000 1.000000
vt 1.000000 0.000000
vt 0.000000 1.000000
vt 1.000000 1.000000
vt 0.000000 1.000000
vt 0.000000 1.000000
vt 1.000000 1.000000
vt 0.000000 0.000000
vt 0.000000 1.000000
vt 0.000000 0.000000
vt 1.000000 0.000000
vt 1.000000 1.000000
vt 0.000000 1.000000
vt 1.000000 0.000000
vt 1.000000 0.000000
vt 1.000000 0.000000
vt 1.000000 0.000000
vt 0.000000 0.000000
vt 0.000000 0.000000
vt 0.000000 0.000000
vt 0.000000 0.000000
vt 0.000000 0.000000
vt 0.000000 0.000000
vt 1.000000 0.000000
vt 1.000000 0.000000
vt 0.000000 1.000000
vt 1.000000 1.000000
vt 0.000000 1.000000
vt 1.000000 1.000000
vn 0.0000 -1.0000 0.0000
vn 0.0000 0.5612 -0.8277
vn 1.0000 0.0000 0.0000
vn -1.0000 0.0000 0.0000
vn 0.0000 0.0000 -1.0000
vn 0.0000 0.0000 1.0000
vn 0.0000 0.5612 0.8277
vn 0.9244 0.3815 0.0000
vn -0.9244 0.3815 0.0000
vn 0.8647 -0.5024 0.0000
vn 0.0000 -0.8234 -0.5674
vn -0.8647 -0.5024 0.0000
vn 0.0000 -0.8429 -0.5381
vn 0.0000 -0.8429 0.5381
vn 0.0000 1.0000 0.0000
vn 0.9803 0.0000 0.1975
vn -0.9575 0.0000 0.2886
vn 0.0000 -0.9446 0.3282
vn -0.9803 0.0000 0.1975
vn 0.0000 1.0000 -0.0047
vn 0.0000 0.9787 -0.2052
vn 0.9575 0.0000 0.2886
vn 0.0000 -0.8107 0.5855
vn -0.9364 0.0000 -0.3508
vn 0.9364 0.0000 -0.3508
vn 0.8158 0.0000 -0.5783
vn -0.8158 0.0000 -0.5783
vn 0.0000 -0.4784 -0.8781
s off
f 1/1/1 3/2/1 4/3/1 2/4/1
f 8/5/2 5/6/2 9/7/2 12/8/2
f 2/4/3 4/3/3 8/5/3 7/9/3
f 3/2/4 1/1/4 6/10/4 5/6/4
f 4/3/5 3/2/5 5/6/5 8/5/5
f 1/1/6 2/4/6 7/9/6 6/10/6
f 10/11/6 11/12/6 15/13/6 14/14/6
f 6/10/7 7/9/7 11/12/7 10/11/7
f 7/9/8 8/5/8 12/8/8 11/12/8
f 5/6/9 6/10/9 10/11/9 9/7/9
f 15/13/10 16/15/10 20/16/10 19/17/10
f 11/12/3 12/8/3 16/15/3 15/13/3
f 9/7/4 10/11/4 14/14/4 13/18/4
f 12/8/5 9/7/5 13/18/5 16/15/5
f 42/19/11 41/20/11 38/21/11 37/22/11
f 13/18/12 14/14/12 18/23/12 17/24/12
f 16/15/13 13/18/13 17/24/13 20/16/13
f 14/14/14 15/13/14 19/17/14 18/23/14
f 22/25/15 23/26/15 24/27/15 21/28/15
f 19/17/6 23/26/6 28/29/6 26/30/6
f 19/17/3 20/16/3 24/27/3 23/26/3
f 17/24/4 18/23/4 22/25/4 21/28/4
f 26/30/16 28/29/16 32/31/16 30/32/16
f 18/23/6 19/17/6 26/30/6 25/33/6
f 22/25/6 18/23/6 25/33/6 27/34/6
f 23/26/6 22/25/6 27/34/6 28/29/6
f 31/35/17 29/36/17 33/37/17 35/38/17
f 25/33/18 26/30/18 30/32/18 29/36/18
f 27/34/19 25/33/19 29/36/19 31/35/19
f 28/29/20 27/34/20 31/35/20 32/31/20
f 33/37/6 34/39/6 36/40/6 35/38/6
f 32/31/21 31/35/21 35/38/21 36/40/21
f 30/32/22 32/31/22 36/40/22 34/39/22
f 29/36/23 30/32/23 34/39/23 33/37/23
f 37/22/5 38/21/5 40/41/5 39/42/5
f 41/20/24 43/43/24 40/41/24 38/21/24
f 44/44/25 42/19/25 37/22/25 39/42/25
f 43/43/15 44/44/15 39/42/15 40/41/15
f 21/28/15 24/27/15 44/44/15 43/43/15
f 24/27/26 20/16/26 42/19/26 44/44/26
f 17/24/27 21/28/27 43/43/27 41/20/27
f 20/16/28 17/24/28 41/20/28 42/19/28