# Blender v2.80 (sub 75) OBJ File: ''
# www.blender.org
o Cube_Cube.001
v -2.516708 0.064472 0.957022
v 2.102421 0.064472 0.957022
v 2.350606 1.000000 1.000000
v -2.233298 0.686075 0.870033
v 2.102421 0.064472 -0.957022
v -2.516708 0.064472 -0.957022
v -2.233298 0.686075 -0.870033
v 2.350606 1.000000 -1.000000
v -2.913727 0.064472 -0.478511
v -2.630316 0.586493 -0.500000
v -0.198973 1.675521 -0.751805
v -0.198973 1.675521 0.751805
v -2.723236 0.548209 0.000000
v -2.630316 0.586493 0.500000
v -2.913727 0.064472 0.478511
v -3.006646 0.064472 0.000000
vt 0.375000 0.500000
vt 0.375000 1.000000
vt 0.625000 0.250000
vt 0.625000 0.500000
vt 0.375000 0.750000
vt 0.375000 0.750000
vt 0.625000 0.000000
vt 0.625000 0.750000
vt 0.375000 0.687500
vt 0.625000 0.687500
vt 0.625000 0.750000
vt 0.625000 1.000000
vt 0.125000 0.500000
vt 0.250000 0.500000
vt 0.250000 0.750000
vt 0.125000 0.750000
vt 0.375000 0.500000
vt 0.375000 0.562500
vt 0.375000 0.625000
vt 0.375000 0.687500
vt 0.375000 0.750000
vt 0.625000 0.375000
vt 0.625000 0.125000
vt 0.625000 0.250000
vt 0.375000 0.562500
vt 0.625000 0.562500
vt 0.625000 0.625000
vt 0.375000 0.625000
vt 0.625000 0.625000
vt 0.625000 0.500000
vt 0.875000 0.500000
vt 0.875000 0.750000
vt 0.625000 0.750000
vt 0.625000 0.687500
vt 0.625000 0.562500
vn -0.0153 0.0335 0.9993
vn -0.0209 0.0694 0.9974
vn -0.0195 0.0606 0.9980
vn -0.0153 0.0335 -0.9993
vn -0.0195 0.0606 -0.9980
vn -0.0209 0.0694 -0.9974
vn -0.6971 0.3803 -0.6077
vn 0.9666 -0.2564 -0.0000
vn 0.2561 0.9666 0.0000
vn -0.4123 0.9111 0.0000
vn -0.0416 0.2025 0.9784
vn -0.0416 0.2025 -0.9784
vn -0.8633 0.4834 0.1450
vn -0.6971 0.3803 0.6077
vn -0.8633 0.4834 -0.1450
vn -0.8725 0.4886 0.0000
vn 0.0000 -1.0000 -0.0000
s 1
f 1/1/1 2/2/1 3/3/2 4/4/3
f 5/5/4 6/6/4 7/7/5 8/8/6
f 9/9/7 10/10/7 7/11/7 6/6/7
f 5/5/8 8/8/8 3/12/8 2/2/8
f 8/13/9 11/14/9 12/15/9 3/16/9
f 11/14/10 7/17/10 10/18/10 13/19/10 14/20/10 4/21/10 12/15/10
f 3/3/2 12/22/11 4/4/3
f 11/23/12 8/24/6 7/7/5
f 15/25/13 14/26/13 13/27/13 16/28/13
f 1/1/14 4/4/14 14/26/14 15/25/14
f 16/28/15 13/27/15 10/10/15 9/9/15
f 13/19/16 10/18/16 9/9/16 16/29/16 15/25/16 14/26/16
f 6/30/17 5/31/17 2/32/17 1/33/17 15/34/17 16/29/17 9/35/17
