# Blender v2.80 (sub 75) OBJ File: 'Chair.blend'
# www.blender.org
o Cube.001
v -0.521131 1.000000 1.000000
v -0.521131 1.000000 -1.000000
v -0.521131 2.826974 -0.999999
v -0.521131 2.826974 1.000001
v -0.521131 0.546150 1.000000
v 0.504534 0.546150 1.000000
v 1.000000 0.546150 1.000000
v 1.000000 1.000000 1.000000
v -0.521131 1.000000 -1.000000
v -0.521131 0.546150 -1.000000
v 0.504534 -1.000000 -1.000000
v 1.000000 -1.000000 -1.000000
v 1.000000 -1.000000 1.000000
v 0.504534 -1.000000 1.000000
v 1.000000 0.546150 -1.000000
v 1.000000 1.000000 -1.000000
v -1.000000 -1.000000 -1.000000
v -0.521131 -1.000000 -1.000000
v -0.521131 -1.000000 1.000000
v -1.000000 -1.000000 1.000000
v -1.000000 2.826974 -0.999999
v -1.000000 2.826974 1.000001
v 0.504534 0.546150 -1.000000
v -0.521131 0.546150 -1.000000
vt 0.565141 0.250000
vt 0.565141 0.000000
vt 0.565141 0.000000
vt 0.565141 0.250000
vt 0.000000 0.000000
vt 0.375000 0.500000
vt 0.318269 0.500000
vt 0.000000 0.000000
vt 0.375000 0.500000
vt 0.625000 0.500000
vt 0.625000 0.750000
vt 0.375000 0.750000
vt 0.563067 0.750000
vt 0.625000 0.750000
vt 0.625000 1.000000
vt 0.563067 1.000000
vt 0.375000 0.000000
vt 0.375000 0.250000
vt 0.434859 0.750000
vt 0.434859 1.000000
vt 0.375000 1.000000
vt 0.625000 0.000000
vt 0.625000 0.250000
vt 0.375000 0.750000
vt 0.000000 0.000000
vt 0.318269 0.750000
vt 0.375000 0.250000
vt 0.568269 0.250000
vt 0.568269 0.311933
vt 0.375000 0.311933
vt 0.625000 0.688067
vt 0.818269 0.688067
vt 0.818269 0.750000
vt 0.818269 0.559859
vt 0.568269 0.440141
vn 1.0000 0.0000 0.0000
vn 0.0000 0.0000 -1.0000
vn -1.0000 -0.0000 0.0000
vn 0.0000 -1.0000 -0.0000
vn 0.0000 1.0000 0.0000
vn 0.0000 0.0000 1.0000
s 1
f 1/1/1 2/2/1 3/3/1 4/4/1
f 9/5/2 16/6/2 15/7/2 10/8/2
f 20/9/3 22/10/3 21/11/3 17/12/3
f 11/13/4 12/14/4 13/15/4 14/16/4
f 16/17/5 2/2/5 1/1/5 8/18/5
f 17/12/4 18/19/4 19/20/4 20/21/4
f 3/3/5 21/22/5 22/23/5 4/4/5
f 8/24/6 1/1/6 5/25/6 7/26/6
f 18/19/2 17/12/2 21/11/2 3/3/2
f 13/27/6 7/28/6 6/29/6 14/30/6
f 11/31/2 23/32/2 15/33/2 12/14/2
f 8/18/1 7/26/1 15/7/1 16/17/1
f 4/4/6 22/23/6 20/9/6 19/20/6
f 24/34/4 23/32/4 6/29/4 5/35/4
f 18/19/1 24/34/1 5/35/1 19/20/1
f 14/16/3 6/29/3 23/32/3 11/13/3
f 12/14/1 15/33/1 7/26/1 13/27/1
l 24 10
l 2 9