# Blender v2.80 (sub 75) OBJ File: ''
# www.blender.org
o Cube_Cube.002
v -1.000000 0.004722 0.000000
v -1.000000 2.037188 0.000000
v 1.000000 2.037188 0.000000
v 1.000000 0.004722 0.000000
v 0.732289 2.304899 0.331767
v 0.067421 2.304899 0.331767
v -0.067421 2.304899 0.331767
v -0.732289 2.304899 0.331767
v -1.000000 2.037188 0.331767
v 1.000000 2.037188 0.331767
v 1.000000 4.069654 0.331768
v 0.732289 3.801943 0.331768
v 0.732289 3.120842 0.331767
v 0.732289 2.985999 0.331767
v 0.067421 2.985999 0.331767
v 0.067421 3.120842 0.331767
v 0.067421 3.801943 0.331768
v -0.067421 3.801943 0.331768
v -0.067421 3.120842 0.331767
v -0.732289 3.120842 0.331767
v -0.732289 2.985999 0.331767
v -0.067421 2.985999 0.331767
v -1.000000 0.004722 0.331767
v 1.000000 0.004722 0.331767
v 0.067421 2.304899 0.000000
v -0.067421 2.304899 0.000000
v -0.067421 2.985999 0.000000
v -0.732289 2.985999 0.000000
v -0.732289 3.120842 0.000001
v -0.067421 3.120842 0.000001
v -0.067421 3.801943 0.000001
v 0.067421 3.801943 0.000001
v 0.067421 3.120842 0.000001
v 0.732289 3.120842 0.000001
v 0.732289 2.985999 0.000000
v 0.067421 2.985999 0.000000
v 1.000000 4.069654 0.000001
v 0.732289 2.304899 0.000000
v 0.732289 3.801943 0.000001
v -0.732289 2.304899 0.000000
v -0.732289 3.801943 0.000001
v -1.000000 4.069654 0.000001
v -0.732289 3.801943 0.331768
v -1.000000 4.069654 0.331768
vt 0.000000 0.000000
vt 0.000000 0.500000
vt 1.000000 0.500000
vt 1.000000 0.000000
vt 0.866145 0.565859
vt 0.533711 0.565859
vt 0.466289 0.565859
vt 0.133855 0.565859
vt 0.000000 0.500000
vt 1.000000 0.500000
vt 1.000000 1.000000
vt 0.866144 0.934141
vt 0.866144 0.766586
vt 0.866144 0.733414
vt 0.000000 0.000000
vt 1.000000 0.000000
vt 1.000000 1.000000
vt 0.866145 0.565859
vt 0.866144 0.733414
vt 0.866144 0.766586
vt 0.866144 0.934141
vt 0.133855 0.565859
vt 0.466289 0.565859
vt 0.533711 0.565859
vt 0.133855 0.934141
vt 0.133855 0.766586
vt 0.133855 0.733414
vt 0.000000 1.000000
vt 0.466289 0.934141
vt 0.533711 0.934141
vt 0.133855 0.934141
vt 0.000000 1.000000
vt 0.133855 0.733414
vt 0.133855 0.766586
vt 0.466289 0.934141
vt 0.533711 0.934141
vt 0.466289 0.733414
vt 0.466289 0.733414
vt 0.466289 0.766586
vt 0.466289 0.766586
vt 0.533711 0.733414
vt 0.533711 0.733414
vt 0.533711 0.766586
vt 0.533711 0.766586
vt 0.000000 0.000000
vt 0.000000 0.000000
vt 0.000000 0.000000
vt 0.000000 0.000000
vt 0.000000 0.000000
vt 0.000000 0.000000
vn -0.5774 -0.5774 -0.5774
vn -0.7071 0.0000 -0.7071
vn 0.7071 0.0000 -0.7071
vn 0.5774 -0.5774 -0.5774
vn -0.3015 0.3015 0.9045
vn 0.3015 0.3015 0.9045
vn -0.7071 -0.0000 0.7071
vn 0.7071 -0.0000 0.7071
vn 0.5774 0.5774 0.5774
vn -0.3015 -0.3015 0.9045
vn -0.5774 -0.5774 0.5774
vn 0.5774 -0.5774 0.5774
vn 0.5774 0.5774 -0.5774
vn -0.3015 0.3015 -0.9045
vn -0.3015 -0.3015 -0.9045
vn 0.3015 0.3015 -0.9045
vn 0.3015 -0.3015 -0.9045
vn -0.5774 0.5774 -0.5774
vn 0.3015 -0.3015 0.9045
vn -0.5774 0.5774 0.5774
s 1
f 1/1/1 2/2/2 3/3/3 4/4/4
f 5/5/5 6/6/6 7/7/5 8/8/6 9/9/7 10/10/8
f 11/11/9 12/12/10 13/13/5 14/14/10 5/5/5 10/10/8
f 23/15/11 24/16/12 10/10/8 9/9/7
f 37/17/13 3/3/3 38/18/14 35/19/15 34/20/14 39/21/15
f 38/18/14 3/3/3 2/2/2 40/22/16 26/23/14 25/24/16
f 41/25/17 29/26/16 28/27/17 40/22/16 2/2/2 42/28/18
f 31/29/15 41/25/17 42/28/18 37/17/13 39/21/15 32/30/17
f 43/31/19 44/32/20 9/9/7 8/8/6 21/33/19 20/34/6
f 18/35/10 17/36/19 12/12/10 11/11/9 44/32/20 43/31/19
f 27/37/1 26/23/14 7/7/5 22/38/11
f 39/21/15 34/20/14 13/13/5 12/12/10
f 1/1/1 4/4/4 24/16/12 23/15/11
f 28/27/17 27/37/1 22/38/11 21/33/19
f 35/19/15 38/18/14 5/5/5 14/14/10
f 4/4/4 3/3/3 10/10/8 24/16/12
f 29/26/16 41/25/17 43/31/19 20/34/6
f 38/18/14 25/24/16 6/6/6 5/5/5
f 31/29/15 30/39/18 19/40/20 18/35/10
f 25/24/16 36/41/4 15/42/12 6/6/6
f 3/3/3 37/17/13 11/11/9 10/10/8
f 30/39/18 29/26/16 20/34/6 19/40/20
f 36/41/4 35/19/15 14/14/10 15/42/12
f 37/17/13 42/28/18 44/32/20 11/11/9
f 32/30/17 39/21/15 12/12/10 17/36/19
f 40/22/16 28/27/17 21/33/19 8/8/6
f 42/28/18 2/2/2 9/9/7 44/32/20
f 33/43/13 32/30/17 17/36/19 16/44/9
f 26/23/14 40/22/16 8/8/6 7/7/5
f 41/25/17 31/29/15 18/35/10 43/31/19
f 34/20/14 33/43/13 16/44/9 13/13/5
f 2/2/2 1/1/1 23/15/11 9/9/7
f 30/45/18 31/29/15 32/30/17 33/46/13 34/20/14 35/19/15 36/47/4 25/24/16 26/23/14 27/48/1 28/27/17 29/26/16
f 19/49/20 20/34/6 21/33/19 22/38/11 7/7/5 6/6/6 15/42/12 14/14/10 13/13/5 16/50/9 17/36/19 18/35/10