# Blender v2.80 (sub 75) OBJ File: 'Espresso.blend'
# www.blender.org
o Cylinder_Cylinder.001
v 0.000000 -1.960576 -1.442955
v 0.000000 1.943908 -1.442955
v 1.128148 -1.960576 -0.899668
v 1.128148 1.943908 -0.899668
v 1.406778 -1.960576 0.321088
v 1.616778 1.943908 0.371088
v 0.626075 -1.960576 1.300058
v 0.626075 1.943908 1.300058
v -0.626075 -1.960576 1.300058
v -0.626075 1.943908 1.300058
v -1.406778 -1.960576 0.321088
v -1.247669 1.604840 -0.037935
v -1.128148 -1.960576 -0.899668
v -1.140570 1.604840 -0.507165
v 0.000000 0.145176 -1.000000
v 0.781832 0.145176 -0.623490
v 0.974928 0.145176 0.222521
v 0.433884 0.145176 0.900969
v -0.433884 0.145176 0.900969
v -1.153852 1.214076 -0.059348
v -1.065335 1.214076 -0.447166
v 0.781832 -0.093501 -0.623490
v 0.974928 -0.093501 0.222521
v 0.433884 -0.093501 0.900969
v -0.433884 -0.093501 0.900969
v -0.974928 -0.093501 0.222521
v -0.781832 -0.093501 -0.623490
v 0.000000 -0.093501 -1.000000
v 0.094326 2.436168 -0.075223
v -0.000000 2.436168 -0.120648
v 0.117623 2.436168 0.026847
v 0.052347 2.436168 0.108700
v -0.052347 2.436168 0.108700
v -0.117623 2.436168 0.026847
v -0.094326 2.436168 -0.075223
v 0.178044 2.719977 -0.141986
v -0.000000 2.719977 -0.227727
v 0.222017 2.719977 0.050674
v 0.098807 2.719977 0.205175
v -0.098807 2.719977 0.205175
v -0.222018 2.719977 0.050674
v -0.178044 2.719977 -0.141985
v -1.128148 1.943908 -0.899668
v -1.406778 1.943908 0.321088
v -0.974928 0.145176 0.222521
v -0.781832 0.145176 -0.623490
v -1.980098 1.413782 -0.698781
v -2.087196 1.413782 -0.229552
v -1.680240 1.094281 -0.179493
v -1.591723 1.094281 -0.567311
v -1.962375 -0.155648 -0.612020
v -2.033175 -0.138618 -0.308832
v -1.712645 -0.110611 -0.263375
v -1.654129 -0.124686 -0.513959
v 1.267463 1.943908 -0.289290
v 1.016426 1.943908 0.810573
v 1.190853 1.044542 0.271804
v 0.762200 2.190038 0.173967
vt 1.000000 0.769658
vt 1.000000 1.000000
vt 0.857143 1.000000
vt 0.857143 0.769658
vt 0.714286 0.884829
vt 0.785714 1.000000
vt 0.714286 1.000000
vt 0.642857 1.000000
vt 0.571429 0.769658
vt 0.571429 1.000000
vt 0.428571 1.000000
vt 0.428571 0.769658
vt 0.285714 1.000000
vt 0.285714 0.769658
vt 0.428571 1.000000
vt 0.285714 1.000000
vt 0.189020 0.906539
vt 0.239552 0.906539
vt 0.239552 0.906539
vt 0.189020 0.906539
vt 0.142857 0.769658
vt 0.142857 1.000000
vt 0.000000 1.000000
vt 0.000000 0.769658
vt 0.750000 0.490000
vt 0.937640 0.399638
vt 0.983983 0.196595
vt 0.854132 0.033767
vt 0.645868 0.033767
vt 0.516017 0.196595
vt 0.562360 0.399638
vt 0.142857 0.739094
vt 0.000000 0.739094
vt 0.285714 0.739094
vt 0.428571 0.739094
vt 0.571429 0.739094
vt 0.714286 0.739094
vt 0.714286 0.769658
vt 0.857143 0.739094
vt 1.000000 0.739094
vt 1.000000 0.500000
vt 0.857143 0.500000
vt 0.714286 0.500000
vt 0.571429 0.500000
vt 0.428571 0.500000
vt 0.285714 0.500000
vt 0.142857 0.500000
vt 0.000000 0.500000
vt 0.142857 1.000000
vt 0.285714 1.000000
vt 0.142857 1.000000
vt 1.000000 1.000000
vt 0.857143 1.000000
vt 0.714286 1.000000
vt 0.571429 1.000000
vt 0.000000 1.000000
vt 0.714286 1.000000
vt 0.437640 0.399638
vt 0.250000 0.490000
vt 0.062360 0.399638
vt 0.016017 0.196595
vt 0.145868 0.033767
vt 0.354132 0.033767
vt 0.483983 0.196595
vt 0.571429 1.000000
vt 0.428571 1.000000
vt 0.857143 1.000000
vt 0.714286 1.000000
vt 0.000000 1.000000
vt 1.000000 1.000000
vt 0.185529 0.956580
vt 0.243043 0.956580
vt 0.185529 0.956580
vt 0.189020 0.906539
vt 0.185529 0.956580
vt 0.243043 0.956580
vt 0.239552 0.906539
vt 0.243043 0.956580
vn 0.4236 -0.2166 -0.8796
vn 0.8298 -0.3445 -0.4389
vn 0.5542 -0.3460 0.7571
vn 0.0000 -0.2166 0.9763
vn -0.7633 -0.2166 0.6087
vn -0.2986 0.9242 0.2381
vn 0.2112 -0.9763 0.0482
vn -0.4236 -0.2166 -0.8796
vn 0.0000 -1.0000 0.0000
vn -0.4339 0.0000 -0.9010
vn -0.9749 0.0000 -0.2225
vn -0.7818 0.0000 0.6235
vn -0.0000 0.0000 1.0000
vn 0.7818 0.0000 0.6235
vn 0.9749 0.0000 -0.2225
vn 0.4339 0.0000 -0.9010
vn 0.4243 0.2090 -0.8811
vn 0.9534 0.2090 -0.2176
vn 0.7646 0.2090 0.6097
vn 0.0000 0.2090 0.9779
vn -0.7646 0.2090 0.6097
vn -0.9534 0.2090 -0.2176
vn -0.4243 0.2090 -0.8811
vn -0.9231 -0.3218 -0.2107
vn 0.1657 0.9242 -0.3441
vn 0.2053 0.9376 0.2805
vn -0.3723 0.9242 -0.0850
vn 0.0000 0.9242 0.3819
vn -0.1657 0.9242 -0.3441
vn 0.3723 0.9242 -0.0850
vn 0.0000 1.0000 -0.0000
vn 0.0000 -0.3218 0.9468
vn 0.9231 -0.3218 -0.2107
vn -0.4108 -0.3218 -0.8530
vn -0.7402 -0.3218 0.5903
vn 0.7402 -0.3218 0.5903
vn 0.4108 -0.3218 -0.8530
vn -0.9518 -0.2166 -0.2172
vn 0.2928 -0.0527 -0.9547
vn -0.1994 -0.1013 0.9747
vn 0.2432 -0.1013 -0.9647
vn -0.2112 0.9763 -0.0482
vn 0.0764 -0.9943 0.0737
vn -0.9743 -0.0229 -0.2239
vn 0.9735 -0.0409 0.2251
vn -0.1534 -0.0596 0.9864
vn 0.9518 -0.2166 -0.2172
vn 0.7633 -0.2166 0.6087
vn 0.3075 0.9375 -0.1627
vn 0.2986 0.9242 0.2381
s off
f 15/1/1 2/2/1 4/3/1 16/4/1
f 57/5/2 55/6/2 6/7/2
f 57/5/3 6/7/3 56/8/3
f 18/9/4 8/10/4 10/11/4 19/12/4
f 19/12/5 10/11/5 44/13/5 45/14/5
f 44/13/6 10/11/6 33/15/6 34/16/6
f 21/17/7 20/18/7 49/19/7 50/20/7
f 46/21/8 43/22/8 2/23/8 15/24/8
f 1/25/9 3/26/9 5/27/9 7/28/9 9/29/9 11/30/9 13/31/9
f 27/32/10 46/21/10 15/24/10 28/33/10
f 26/34/11 45/14/11 46/21/11 27/32/11
f 25/35/12 19/12/12 45/14/12 26/34/12
f 24/36/13 18/9/13 19/12/13 25/35/13
f 23/37/14 17/38/14 18/9/14 24/36/14
f 22/39/15 16/4/15 17/38/15 23/37/15
f 28/40/16 15/1/16 16/4/16 22/39/16
f 1/41/17 28/40/17 22/39/17 3/42/17
f 3/42/18 22/39/18 23/37/18 5/43/18
f 5/43/19 23/37/19 24/36/19 7/44/19
f 7/44/20 24/36/20 25/35/20 9/45/20
f 9/45/21 25/35/21 26/34/21 11/46/21
f 11/46/22 26/34/22 27/32/22 13/47/22
f 13/47/23 27/32/23 28/33/23 1/48/23
f 35/49/24 34/16/24 41/50/24 42/51/24
f 4/3/25 2/2/25 30/52/25 29/53/25
f 56/8/26 6/7/26 58/54/26
f 43/22/27 44/13/27 34/16/27 35/49/27
f 10/11/28 8/10/28 32/55/28 33/15/28
f 2/23/29 43/22/29 35/49/29 30/56/29
f 55/6/30 4/3/30 29/53/30 31/57/30 58/54/30
f 36/58/31 37/59/31 42/60/31 41/61/31 40/62/31 39/63/31 38/64/31
f 33/15/32 32/55/32 39/65/32 40/66/32
f 31/57/33 29/53/33 36/67/33 38/68/33
f 30/56/34 35/49/34 42/51/34 37/69/34
f 34/16/35 33/15/35 40/66/35 41/50/35
f 32/55/36 31/57/36 38/68/36 39/65/36
f 29/53/37 30/52/37 37/70/37 36/67/37
f 14/71/38 12/72/38 44/13/38 43/22/38
f 12/72/38 20/18/38 45/14/38 44/13/38
f 21/17/38 14/71/38 43/22/38 46/21/38
f 20/18/38 21/17/38 46/21/38 45/14/38
f 47/73/39 50/20/39 54/74/39 51/75/39
f 20/18/40 12/72/40 48/76/40 49/19/40
f 14/71/41 21/17/41 50/20/41 47/73/41
f 12/72/42 14/71/42 47/73/42 48/76/42
f 53/77/43 52/78/43 51/75/43 54/74/43
f 48/76/44 47/73/44 51/75/44 52/78/44
f 50/20/45 49/19/45 53/77/45 54/74/45
f 49/19/46 48/76/46 52/78/46 53/77/46
f 16/4/47 4/3/47 55/6/47 57/5/47 17/38/47
f 17/38/48 57/5/48 56/8/48 8/10/48 18/9/48
f 6/7/49 55/6/49 58/54/49
f 8/10/50 56/8/50 58/54/50 31/57/50 32/55/50
