# Blender v2.80 (sub 75) OBJ File: 'OldTV.blend'
# www.blender.org
o Cube_Cube.002
v -0.672170 1.186084 -0.375332
v -0.813315 -1.422594 -0.375332
v -0.672170 1.186084 0.375332
v -0.813315 -1.422594 0.375332
v -0.890234 0.630624 -0.375332
v -0.789941 0.000000 -0.375332
v -1.067204 -0.775537 -0.375332
v -1.067204 -0.775537 0.375332
v -0.789941 0.000000 0.375332
v -0.890234 0.630624 0.375332
v -0.224511 1.297489 0.375332
v -0.333333 -1.685726 0.375332
v 0.333333 -1.685726 0.375332
v -0.224511 1.297489 -0.375332
v 0.224511 1.297489 -0.375332
v 0.333333 -1.685726 -0.375332
v -0.224511 1.297489 0.154167
v 0.224511 3.226077 0.375332
v -0.224511 3.226077 0.154167
v -0.312074 3.226077 0.154167
v -0.312074 3.226077 0.375332
v -0.312074 4.001832 0.154167
v -0.312074 4.001832 0.375332
v 0.672170 1.186084 -0.375332
v 0.813315 -1.422594 -0.375332
v 0.672170 1.186084 0.375332
v 0.813315 -1.422594 0.375332
v 0.890234 0.630624 -0.375332
v 0.789941 0.000000 -0.375332
v 1.067204 -0.775537 -0.375332
v 1.067204 -0.775537 0.375332
v 0.789941 0.000000 0.375332
v 0.890234 0.630624 0.375332
v 0.224511 1.297489 0.375332
v -0.333333 -1.685726 -0.375332
v 0.224511 1.297489 0.154167
v -0.224511 3.226077 0.375332
v 0.224511 3.226077 0.154167
v 0.312074 3.226077 0.154167
v 0.312074 3.226077 0.375332
v 0.312074 4.001832 0.154167
v 0.312074 4.001832 0.375332
vt 0.562500 0.750000
vt 0.625000 0.750000
vt 0.625000 1.000000
vt 0.562500 1.000000
vt 0.791667 0.500000
vt 0.875000 0.500000
vt 0.875000 0.750000
vt 0.791667 0.750000
vt 0.791667 0.625000
vt 0.250000 0.750000
vt 0.312500 0.750000
vt 0.375000 0.750000
vt 0.375000 0.583333
vt 0.375000 0.666667
vt 0.375000 0.750000
vt 0.312500 0.750000
vt 0.250000 0.750000
vt 0.187500 0.750000
vt 0.125000 0.750000
vt 0.125000 0.666667
vt 0.125000 0.666667
vt 0.125000 0.750000
vt 0.187500 0.750000
vt 0.375000 0.750000
vt 0.437500 0.750000
vt 0.437500 1.000000
vt 0.375000 1.000000
vt 0.500000 0.750000
vt 0.500000 1.000000
vt 0.500000 0.250000
vt 0.562500 0.250000
vt 0.625000 0.250000
vt 0.625000 0.333333
vt 0.625000 0.333333
vt 0.625000 0.250000
vt 0.562500 0.250000
vt 0.500000 0.250000
vt 0.437500 0.250000
vt 0.375000 0.250000
vt 0.375000 0.416667
vt 0.375000 0.333333
vt 0.375000 0.250000
vt 0.437500 0.250000
vt 0.375000 0.583333
vt 0.375000 0.666667
vt 0.375000 0.000000
vt 0.458333 0.000000
vt 0.458333 0.250000
vt 0.375000 0.250000
vt 0.541667 0.000000
vt 0.541667 0.250000
vt 0.708333 0.500000
vt 0.708333 0.625000
vt 0.791667 0.625000
vt 0.791667 0.750000
vt 0.791667 0.750000
vt 0.791667 0.625000
vt 0.000000 0.000000
vt 0.000000 0.000000
vt 0.000000 0.000000
vt 0.000000 0.000000
vt 0.708333 0.625000
vt 0.791667 0.750000
vt 0.791667 0.750000
vt 0.791667 0.625000
vt 0.791667 0.625000
vt 0.791667 0.625000
vt 0.791667 0.750000
vt 0.562500 0.750000
vt 0.562500 1.000000
vt 0.625000 1.000000
vt 0.625000 0.750000
vt 0.791667 0.500000
vt 0.791667 0.625000
vt 0.791667 0.750000
vt 0.875000 0.750000
vt 0.875000 0.500000
vt 0.375000 0.750000
vt 0.375000 1.000000
vt 0.437500 1.000000
vt 0.437500 0.750000
vt 0.500000 1.000000
vt 0.500000 0.750000
vt 0.375000 0.000000
vt 0.375000 0.250000
vt 0.458333 0.250000
vt 0.458333 0.000000
vt 0.791667 0.625000
vt 0.791667 0.750000
vn -0.9308 0.3654 0.0000
vn -0.2415 0.9704 0.0000
vn -0.0000 0.0000 1.0000
vn -0.9309 -0.3653 0.0000
vn -0.9416 0.3366 0.0000
vn -0.9876 -0.1571 0.0000
vn 0.0000 0.0000 -1.0000
vn -0.4807 -0.8769 0.0000
vn 0.0000 -1.0000 -0.0000
vn 0.0000 1.0000 0.0000
vn 1.0000 0.0000 0.0000
vn -1.0000 0.0000 0.0000
vn 0.9308 0.3654 0.0000
vn 0.2415 0.9704 0.0000
vn 0.9309 -0.3653 0.0000
vn 0.9416 0.3366 0.0000
vn 0.9876 -0.1571 0.0000
vn 0.4807 -0.8769 0.0000
s off
f 10/1/1 3/2/1 1/3/1 5/4/1
f 14/5/2 1/6/2 3/7/2 11/8/2 17/9/2
f 32/10/3 33/11/3 26/12/3 34/13/3 11/14/3 3/15/3 10/16/3 9/17/3 8/18/3 4/19/3 12/20/3 13/21/3 27/22/3 31/23/3
f 4/24/4 8/25/4 7/26/4 2/27/4
f 8/25/5 9/28/5 6/29/5 7/26/5
f 9/28/6 10/1/6 5/4/6 6/29/6
f 6/30/7 5/31/7 1/32/7 14/33/7 15/34/7 24/35/7 28/36/7 29/37/7 30/38/7 25/39/7 16/40/7 35/41/7 2/42/7 7/43/7
f 11/14/3 34/13/3 18/44/3 37/45/3
f 2/46/8 35/47/8 12/48/8 4/49/8
f 35/47/9 16/50/9 13/51/9 12/48/9
f 15/52/10 14/5/10 17/9/10 36/53/10
f 19/54/9 37/55/9 21/56/9 20/57/9
f 34/58/11 36/59/11 38/60/11 18/61/11
f 17/9/12 11/8/12 37/55/12 19/54/12
f 36/53/7 17/9/7 19/54/7 38/62/7
f 23/63/10 42/64/10 41/65/10 22/66/10
f 39/67/7 20/57/7 22/66/7 41/65/7
f 20/57/12 21/56/12 23/63/12 22/66/12
f 42/64/3 23/63/3 21/56/3 40/68/3
f 33/69/13 28/70/13 24/71/13 26/72/13
f 15/73/14 36/74/14 34/75/14 26/76/14 24/77/14
f 27/78/15 25/79/15 30/80/15 31/81/15
f 31/81/16 30/80/16 29/82/16 32/83/16
f 32/83/17 29/82/17 28/70/17 33/69/17
f 25/84/18 27/85/18 13/86/18 16/87/18
f 38/88/9 39/67/9 40/68/9 18/89/9
f 39/67/11 41/65/11 42/64/11 40/68/11
