# Blender v2.80 (sub 75) OBJ File: ''
# www.blender.org
o Cube.001
v -0.413307 -1.000000 -0.396078
v 0.413307 -1.000000 -0.396078
v 0.413307 -6.827411 0.396077
v -0.413307 -6.827411 0.396077
v -1.933593 -0.631773 0.631773
v -1.933593 0.631773 0.631773
v -1.933593 0.631773 -0.631773
v -1.933593 -0.631773 -0.631773
v 1.565366 -0.631773 1.000000
v 1.565366 0.631773 1.000000
v -1.565366 0.631773 1.000000
v -1.565366 -0.631773 1.000000
v 1.565366 1.000000 -0.631773
v -1.565366 1.000000 -0.631773
v -1.565366 1.000000 0.631773
v 1.565366 1.000000 0.631773
v 1.933593 -0.631773 -0.631773
v 1.933593 0.631773 -0.631773
v 1.933593 0.631773 0.631773
v 1.933593 -0.631773 0.631773
v 1.565366 0.631773 -1.000000
v 1.565366 -1.000000 -0.631773
v 1.565366 -0.631773 -1.000000
v 1.565366 -1.000000 0.631773
v -1.565366 0.631773 -1.000000
v -1.565366 -0.631773 -1.000000
v -1.565366 -1.000000 -0.631773
v -1.565366 -1.000000 0.631773
v -0.413307 -1.000000 0.396077
v 0.413307 -1.000000 0.396077
v 0.413307 -6.827411 -0.396078
v -0.413307 -6.827411 -0.396078
vt 0.575015 0.903350
vt 0.424985 0.903350
vt 0.424985 0.903350
vt 0.575015 0.903350
vt 0.421028 0.546028
vt 0.578972 0.546028
vt 0.578972 0.703972
vt 0.421028 0.703972
vt 0.421028 0.273805
vt 0.578972 0.273805
vt 0.578972 0.476195
vt 0.421028 0.476195
vt 0.398805 0.046028
vt 0.601195 0.046028
vt 0.601195 0.203972
vt 0.398805 0.203972
vt 0.171028 0.546028
vt 0.328972 0.546028
vt 0.328972 0.703972
vt 0.171028 0.703972
vt 0.828972 0.726195
vt 0.875000 0.726195
vt 0.828972 0.750000
vt 0.601195 0.796028
vt 0.601195 0.750000
vt 0.625000 0.796028
vt 0.375000 0.703972
vt 0.328972 0.750000
vt 0.171028 0.750000
vt 0.125000 0.703972
vt 0.828972 0.523805
vt 0.828972 0.500000
vt 0.875000 0.523805
vt 0.421028 0.750000
vt 0.375000 0.703972
vt 0.578972 0.500000
vt 0.625000 0.546028
vt 0.398805 0.953972
vt 0.398805 1.000000
vt 0.375000 0.953972
vt 0.398805 0.796028
vt 0.375000 0.796028
vt 0.398805 0.750000
vt 0.171028 0.500000
vt 0.328972 0.500000
vt 0.421028 0.250000
vt 0.578972 0.250000
vt 0.671028 0.523805
vt 0.671028 0.500000
vt 0.601195 0.250000
vt 0.398805 0.250000
vt 0.375000 0.203972
vt 0.375000 0.046028
vt 0.601195 0.953972
vt 0.601195 1.000000
vt 0.625000 0.046028
vt 0.625000 0.203972
vt 0.398805 0.000000
vt 0.601195 0.000000
vt 0.625000 0.953972
vt 0.671028 0.726195
vt 0.424985 0.846650
vt 0.575015 0.846650
vt 0.575015 0.846650
vt 0.424985 0.846650
vn 0.7071 -0.0000 0.7071
vn -0.7071 -0.0000 0.7071
vn -1.0000 0.0000 0.0000
vn 0.0000 -0.0000 1.0000
vn 0.0000 1.0000 0.0000
vn 1.0000 -0.0000 0.0000
vn 0.5774 0.5774 -0.5774
vn 0.5774 -0.5774 -0.5774
vn 0.5774 0.5774 0.5774
vn 0.5773 -0.5774 0.5774
vn -0.5774 0.5774 -0.5774
vn -0.5774 -0.5774 -0.5774
vn -0.5774 0.5774 0.5774
vn -0.5773 -0.5774 0.5774
vn -0.7071 -0.7071 -0.0000
vn 0.0000 -0.7071 -0.7071
vn 0.7071 0.0000 -0.7071
vn -0.7071 0.0000 -0.7071
vn 0.0000 0.7071 0.7071
vn 0.7071 0.7071 0.0000
vn 0.0000 -0.7071 0.7071
vn -0.7071 0.7071 0.0000
vn 0.0000 0.7071 -0.7071
vn 0.7071 -0.7071 -0.0000
vn 0.0000 0.0000 -1.0000
vn -0.0000 -1.0000 -0.0000
s 1
f 30/1/1 29/2/2 4/3/2 3/4/1
f 5/5/3 6/6/3 7/7/3 8/8/3
f 9/9/4 10/10/4 11/11/4 12/12/4
f 13/13/5 14/14/5 15/15/5 16/16/5
f 17/17/6 18/18/6 19/19/6 20/20/6
f 21/21/7 13/22/7 18/23/7
f 22/24/8 23/25/8 17/26/8
f 19/19/9 16/27/9 10/28/9
f 20/20/10 9/29/10 24/30/10
f 25/31/11 7/32/11 14/33/11
f 8/8/12 26/34/12 27/35/12
f 6/6/13 11/36/13 15/37/13
f 28/38/14 12/39/14 5/40/14
f 27/41/15 28/38/15 5/40/15 8/42/15
f 22/24/16 27/41/16 26/43/16 23/25/16
f 18/18/17 17/17/17 23/44/17 21/45/17
f 12/12/2 11/11/2 6/6/2 5/5/2
f 10/10/1 9/9/1 20/46/1 19/47/1
f 25/31/18 26/48/18 8/49/18 7/32/18
f 16/16/19 15/15/19 11/50/19 10/51/19
f 13/13/20 16/16/20 19/52/20 18/53/20
f 28/38/21 24/54/21 9/55/21 12/39/21
f 15/15/22 14/14/22 7/56/22 6/57/22
f 14/14/23 13/13/23 21/58/23 25/59/23
f 24/54/24 22/24/24 17/26/24 20/60/24
f 26/48/25 25/31/25 21/21/25 23/61/25
f 1/62/26 29/2/26 28/38/26 27/41/26
f 2/63/26 1/62/26 27/41/26 22/24/26
f 29/2/26 30/1/26 24/54/26 28/38/26
f 30/1/26 2/63/26 22/24/26 24/54/26
f 1/62/18 2/63/17 31/64/17 32/65/18
f 32/65/26 31/64/26 3/4/26 4/3/26
f 2/63/17 30/1/1 3/4/1 31/64/17
f 29/2/2 1/62/18 32/65/18 4/3/2
