# Blender v2.80 (sub 75) OBJ File: ''
# www.blender.org
o Cube_Cube.002
v -0.934973 0.222222 0.680939
v -0.934973 0.222222 -0.680939
v 0.617284 1.000000 1.000000
v 0.617284 1.000000 -1.000000
v -0.065027 0.511281 -0.869946
v -0.065027 0.511281 0.869946
v 0.949840 0.769545 -0.769545
v 0.949840 -0.769545 -0.769545
v 0.949840 -0.769545 0.769545
v 0.949840 0.769545 0.769545
v 0.949840 1.000000 -1.000000
v 0.949840 1.000000 1.000000
v 0.730906 0.769545 -0.769545
v 0.730906 -0.769545 -0.769545
v 0.730906 -0.769545 0.769545
v 0.730906 0.769545 0.769545
v -0.934973 -0.947459 0.680939
v -0.934973 -0.947459 -0.680939
v 0.617284 -0.947459 -1.000000
v 0.617284 -0.947459 1.000000
v -0.065027 -0.947459 0.869946
v -0.065027 -0.947459 -0.869946
v 0.949840 -0.947459 -1.000000
v 0.949840 -0.947459 1.000000
vt 0.385068 0.000000
vt 0.625000 0.000000
vt 0.625000 0.250000
vt 0.385068 0.250000
vt 0.383138 0.375000
vt 0.625000 0.375000
vt 0.625000 0.500000
vt 0.381568 0.500000
vt 0.625000 0.750000
vt 0.625000 0.750000
vt 0.625000 0.500000
vt 0.383138 0.875000
vt 0.625000 0.875000
vt 0.625000 1.000000
vt 0.385068 1.000000
vt 0.750000 0.500000
vt 0.875000 0.500000
vt 0.875000 0.750000
vt 0.750000 0.750000
vt 0.381568 0.750000
vt 0.596193 0.528807
vt 0.596193 0.721193
vt 0.596193 0.721193
vt 0.596193 0.528807
vt 0.381568 0.500000
vt 0.381568 0.506568
vt 0.381568 0.750000
vt 0.403807 0.528807
vt 0.403807 0.721193
vt 0.403807 0.528807
vt 0.403807 0.721193
vt 0.381568 0.743432
vn -1.0000 0.0000 0.0000
vn -0.1872 0.0000 -0.9823
vn 0.0000 1.0000 0.0000
vn -0.2123 0.0000 0.9772
vn -0.3153 0.9490 0.0000
vn -0.5823 0.8130 0.0000
vn -0.1872 0.0000 0.9823
vn -0.2123 0.0000 -0.9772
vn 0.0000 -1.0000 0.0000
vn 0.0000 0.0000 -1.0000
vn 1.0000 0.0000 0.0000
vn 0.0000 0.0000 1.0000
s off
f 17/1/1 1/2/1 2/3/1 18/4/1
f 22/5/2 5/6/2 4/7/2 19/8/2
f 4/7/3 3/9/3 12/10/3 11/11/3
f 21/12/4 6/13/4 1/14/4 17/15/4
f 5/16/5 2/17/5 1/18/5 6/19/5
f 4/7/6 5/16/6 6/19/6 3/9/6
f 20/20/7 3/9/7 6/13/7 21/12/7
f 18/4/8 2/3/8 5/6/8 22/5/8
f 7/21/9 10/22/9 16/23/9 13/24/9
f 19/8/10 4/7/10 11/11/10 23/25/10
f 10/22/11 7/21/11 11/11/11 12/10/11
f 23/26/9 24/27/9 20/20/9 21/12/9 17/1/9 18/4/9 22/5/9 19/8/9
f 14/28/11 13/24/11 16/23/11 15/29/11
f 8/30/12 7/21/12 13/24/12 14/28/12
f 10/22/10 9/31/10 15/29/10 16/23/10
f 9/31/3 8/30/3 14/28/3 15/29/3
f 8/30/11 9/31/11 24/32/11 23/26/11
f 9/31/11 10/22/11 12/10/11 24/32/11
f 7/21/11 8/30/11 23/25/11 11/11/11
f 3/9/12 20/20/12 24/27/12 12/10/12
