# Blender v2.80 (sub 75) OBJ File: ''
# www.blender.org
o Cube_Cube.002
v -0.934973 -0.947459 0.680939
v -0.934973 0.222222 0.680939
v -0.934973 0.222222 -0.680939
v -0.934973 -0.947459 -0.680939
v -0.065027 -0.947459 -0.869946
v -0.065027 0.511281 -0.869946
v 0.617284 1.000000 -1.000000
v 0.617284 -0.947459 -1.000000
v 0.617284 1.000000 1.000000
v 0.949840 1.000000 1.000000
v 0.949840 1.000000 -1.000000
v -0.065027 -0.947459 0.869946
v -0.065027 0.511281 0.869946
v 0.617284 -0.947459 1.000000
v 0.949840 -0.947459 -1.000000
v 0.949840 -0.947459 1.000000
v 0.949840 0.795597 0.790083
v 0.949840 0.795597 -0.790082
v 0.949840 -0.743056 -0.790083
v 0.949840 -0.743056 0.790082
vt 0.385068 0.000000
vt 0.625000 0.000000
vt 0.625000 0.250000
vt 0.385068 0.250000
vt 0.383138 0.375000
vt 0.625000 0.375000
vt 0.625000 0.500000
vt 0.381568 0.500000
vt 0.625000 0.750000
vt 0.625000 0.750000
vt 0.625000 0.500000
vt 0.383138 0.875000
vt 0.625000 0.875000
vt 0.625000 1.000000
vt 0.385068 1.000000
vt 0.750000 0.500000
vt 0.875000 0.500000
vt 0.875000 0.750000
vt 0.750000 0.750000
vt 0.381568 0.750000
vt 0.381568 0.500000
vt 0.381568 0.506568
vt 0.381568 0.750000
vt 0.381568 0.506568
vt 0.381568 0.750000
vt 0.625000 0.500000
vt 0.625000 0.750000
vt 0.381568 0.743432
vt 0.381568 0.500000
vn -1.0000 0.0000 0.0000
vn -0.1872 0.0000 -0.9823
vn 0.0000 1.0000 0.0000
vn -0.2123 -0.0000 0.9772
vn -0.3153 0.9490 0.0000
vn -0.5823 0.8130 0.0000
vn -0.1872 -0.0000 0.9823
vn -0.2123 0.0000 -0.9772
vn 0.0000 0.0000 -1.0000
vn 0.0000 -1.0000 -0.0000
vn 0.0000 -0.0000 1.0000
vn 1.0000 0.0000 0.0000
s 1
f 1/1/1 2/2/1 3/3/1 4/4/1
f 5/5/2 6/6/2 7/7/2 8/8/2
f 7/7/3 9/9/3 10/10/3 11/11/3
f 12/12/4 13/13/4 2/14/4 1/15/4
f 6/16/5 3/17/5 2/18/5 13/19/5
f 7/7/6 6/16/6 13/19/6 9/9/6
f 14/20/7 9/9/7 13/13/7 12/12/7
f 4/4/8 3/3/8 6/6/8 5/5/8
f 8/8/9 7/7/9 11/11/9 15/21/9
f 15/22/10 16/23/10 14/20/10 12/12/10 1/1/10 4/4/10 5/5/10 8/8/10
f 9/9/11 14/20/11 16/23/11 10/10/11
f 16/23/12 15/22/12 19/24/12 20/25/12
f 18/26/12 17/27/12 20/28/12 19/29/12
f 11/11/12 10/10/12 17/27/12 18/26/12
f 15/21/12 11/11/12 18/26/12 19/29/12
f 10/10/12 16/23/12 20/25/12 17/27/12
