# Blender v2.80 (sub 75) OBJ File: 'person.blend'
# www.blender.org
o Cube
v -0.279350 3.383427 0.549695
v -0.279350 1.383427 0.549695
v -0.279350 2.763340 0.549695
v 0.279350 1.383427 0.549695
v 0.279350 3.383427 0.448706
v -0.279350 1.956212 1.368410
v -0.279350 2.307070 1.630105
v 0.279350 2.307070 1.630105
v 0.279350 0.103841 1.039854
v 0.531645 3.383427 0.448706
v 0.531645 4.375799 0.448706
v 0.279350 3.383427 0.549695
v 0.279350 2.763340 0.549695
v -0.279350 3.383427 0.448706
v 0.279350 1.956212 1.368410
v -0.279350 0.103841 1.039854
v -0.279350 0.103841 0.490159
v 0.279350 0.103841 0.490159
v -0.531645 3.383427 0.448706
v -0.531645 4.375799 0.448706
v 0.279350 2.763340 -0.549695
v 0.279350 1.383427 -0.549695
v 0.279350 3.383427 -0.448706
v -0.279350 2.307070 -1.630105
v 0.279350 1.956212 -1.368410
v 0.279350 0.103841 -1.039854
v 0.279350 0.103841 -0.490159
v -0.279350 0.103841 -0.490159
v 0.531645 3.383427 -0.448706
v 0.531645 4.375799 -0.448706
v -0.279350 3.383427 -0.549695
v 0.279350 3.383427 -0.549695
v -0.279350 2.763340 -0.549695
v -0.279350 1.383427 -0.549695
v 0.279350 1.383427 0.000000
v -0.279350 1.383427 0.000000
v -0.279350 3.383427 -0.448706
v 0.279350 2.307070 -1.630105
v -0.279350 1.956212 -1.368410
v -0.279350 0.103841 -1.039854
v -0.531645 3.383427 -0.448706
v -0.531645 4.375799 -0.448706
vt 0.375000 0.187500
vt 0.625000 0.187500
vt 0.625000 0.250000
vt 0.375000 0.250000
vt 0.564850 0.500000
vt 0.564850 0.250000
vt 0.564850 0.250000
vt 0.564850 0.500000
vt 0.375000 0.250000
vt 0.375000 0.500000
vt 0.625000 0.250000
vt 0.625000 0.500000
vt 0.314850 0.750000
vt 0.375000 0.750000
vt 0.375000 0.750000
vt 0.314850 0.750000
vt 0.625000 0.250000
vt 0.375000 0.250000
vt 0.625000 0.500000
vt 0.000000 0.000000
vt 0.000000 0.000000
vt 0.000000 0.000000
vt 0.000000 0.000000
vt 0.000000 0.000000
vt 0.000000 0.000000
vt 0.000000 0.000000
vt 0.000000 0.000000
vt 0.564850 0.500000
vt 0.375000 0.500000
vt 0.375000 0.625000
vt 0.625000 0.562500
vt 0.625000 0.562500
vt 0.625000 0.500000
vt 0.375000 0.187500
vt 0.375000 0.250000
vt 0.625000 0.250000
vt 0.625000 0.187500
vt 0.564850 0.500000
vt 0.564850 0.250000
vt 0.564850 0.250000
vt 0.375000 0.250000
vt 0.625000 0.500000
vt 0.625000 0.250000
vt 0.314850 0.750000
vt 0.314850 0.750000
vt 0.375000 0.750000
vt 0.375000 0.750000
vt 0.375000 0.250000
vt 0.625000 0.250000
vt 0.000000 0.000000
vt 0.000000 0.000000
vt 0.000000 0.000000
vt 0.000000 0.000000
vt 0.000000 0.000000
vt 0.000000 0.000000
vt 0.375000 0.687500
vt 0.375000 0.687500
vt 0.375000 0.687500
vt 0.375000 0.687500
vt 0.375000 0.687500
vt 0.375000 0.687500
vt 0.375000 0.687500
vt 0.375000 0.687500
vt 0.125000 0.625000
vt 0.125000 0.750000
vt 0.125000 0.750000
vt 0.375000 0.687500
vt 0.375000 0.687500
vt 0.375000 0.687500
vt 0.375000 0.687500
vn 0.0000 1.0000 0.0000
vn 0.0000 -0.7121 -0.7020
vn 0.0000 0.0000 1.0000
vn 0.0000 -0.5979 0.8016
vn 1.0000 -0.0000 0.0000
vn 0.0000 0.7084 0.7058
vn -1.0000 -0.0000 0.0000
vn 0.0000 -1.0000 0.0000
vn 0.0000 0.3577 0.9338
vn 0.0000 -0.3577 -0.9338
vn 0.0000 -0.7121 0.7020
vn 0.0000 0.0000 -1.0000
vn 0.0000 -0.5979 -0.8016
vn 0.0000 0.7084 -0.7058
vn 0.0000 -0.3577 0.9338
vn 0.0000 0.3577 -0.9338
s off
f 5/1/1 14/2/1 1/3/1 12/4/1
f 3/5/2 13/6/2 15/7/2 6/8/2
f 4/9/3 13/6/3 3/5/3 2/10/3
f 15/7/4 8/11/4 7/12/4 6/8/4
f 13/13/5 12/14/5 8/15/5 15/16/5
f 12/4/6 1/3/6 7/17/6 8/18/6
f 1/19/7 3/5/7 6/8/7 7/12/7
f 16/20/8 17/21/8 18/22/8 9/23/8
f 2/24/9 16/20/9 9/23/9 4/25/9
f 36/26/7 17/21/7 16/20/7 2/24/7
f 4/25/5 9/23/5 18/22/5 35/27/5
f 33/28/7 34/29/7 36/30/7 2/10/7 3/5/7 1/19/7 14/31/7 37/32/7 31/33/7
f 36/26/10 35/27/10 18/22/10 17/21/10
f 23/34/1 32/35/1 31/36/1 37/37/1
f 33/28/11 39/38/11 25/39/11 21/40/11
f 22/41/12 34/29/12 33/28/12 21/40/12
f 25/39/13 39/38/13 24/42/13 38/43/13
f 21/44/5 25/45/5 38/46/5 32/47/5
f 32/35/14 38/48/14 24/49/14 31/36/14
f 31/33/7 24/42/7 39/38/7 33/28/7
f 40/50/8 26/51/8 27/52/8 28/53/8
f 35/27/15 36/26/15 28/53/15 27/52/15
f 34/54/16 22/55/16 26/51/16 40/50/16
f 36/26/7 34/54/7 40/50/7 28/53/7
f 22/55/5 35/27/5 27/52/5 26/51/5
f 19/56/7 20/57/7 42/58/7 41/59/7
f 5/60/8 23/61/8 29/62/8 10/63/8
f 35/64/5 22/65/5 21/44/5 32/47/5 23/61/5 5/60/5 12/14/5 13/13/5 4/66/5
f 29/62/12 41/59/12 42/58/12 30/67/12
f 30/67/1 42/58/1 20/57/1 11/68/1
f 10/63/5 29/62/5 30/67/5 11/68/5
f 14/69/8 19/56/8 41/59/8 37/70/8
f 10/63/3 11/68/3 20/57/3 19/56/3