# Blender v2.74 (sub 0) OBJ File: ''
# www.blender.org
mtllib pirate-ship.mtl
o Sail
v 0.293574 1.140769 0.607576
v 0.293574 1.140769 -0.607576
v -0.125221 0.616048 0.500000
v -0.125221 0.616048 -0.500000
v 0.173040 1.140769 -0.607576
v 0.173040 1.140769 0.607576
v -0.245755 0.616048 -0.500000
v -0.245755 0.616048 0.500000
v -0.245755 2.257173 0.500000
v -0.245755 2.257173 -0.500000
v -0.125221 2.257173 0.500000
v -0.125221 2.257173 -0.500000
vt 0.000000 1.000000
vt 0.000000 0.000000
vt 1.000000 0.000000
vt 1.000000 1.000000
vn 0.781600 -0.623800 0.000000
vn -0.781600 0.623800 0.000000
vn 0.000000 1.000000 0.000000
vn 0.000000 -1.000000 0.000000
vn 0.000000 -0.200800 0.979600
vn 0.000000 -0.200800 -0.979600
vn -0.936300 -0.351200 0.000000
vn 0.000000 0.095900 0.995400
vn 0.936300 0.351200 0.000000
vn 0.000000 0.095900 -0.995400
usemtl b0b0b0
s 1
f 1/1/1 3/2/1 4/3/1 2/4/1
f 5/1/2 7/2/2 8/3/2 6/4/2
f 10/1/3 9/2/3 11/3/3 12/4/3
f 8/1/4 7/2/4 4/3/4 3/4/4
f 6/1/5 8/2/5 3/3/5 1/4/5
f 2/1/6 4/2/6 7/3/6 5/4/6
f 5/2/7 6/2/7 9/2/7 10/2/7
f 6/2/8 1/2/8 11/2/8 9/2/8
f 1/2/9 2/2/9 12/2/9 11/2/9
f 2/2/10 5/2/10 10/2/10 12/2/10
o Hull
v 1.417948 0.701210 0.000000
v 0.929622 -0.144100 0.000000
v 0.500000 0.491813 0.500000
v 0.500000 0.491813 -0.500000
v -0.002553 -0.144100 0.372222
v -0.002553 -0.144100 -0.372222
v -0.914946 0.491813 -0.500000
v -0.914946 0.491813 0.500000
v -0.911576 -0.144100 -0.372222
v -0.911576 -0.144100 0.372222
v -1.750776 0.491139 -0.500000
v -1.557448 -0.144774 -0.276683
v -1.557448 -0.144774 0.276683
v -1.750776 0.491139 0.500000
v -1.279196 0.834280 -0.500000
v -1.279196 0.834280 0.500000
v -1.814260 0.833606 -0.500000
v -1.814260 0.833606 0.500000
v -0.836544 -0.344143 -0.289703
v -0.129045 -0.344143 -0.289703
v -0.129045 -0.344143 0.289703
v -0.836544 -0.344143 0.289703
v -1.339230 -0.344667 0.215344
v -1.339230 -0.344667 -0.215344
v 0.596472 -0.344143 0.000000
vt -1.250776 1.000000
vt -1.057448 0.776682
vt -1.057448 0.223317
vt -1.250776 0.000000
vt -0.414946 1.000000
vt -0.414946 0.000000
vt 1.000000 0.000000
vt 1.000000 1.000000
vt -0.336544 0.210297
vt -0.336544 0.789703
vt 0.370955 0.789703
vt 0.370955 0.210297
vt -0.411576 0.127778
vt 0.497447 0.127778
vt 0.497447 0.872222
vt -0.411576 0.872222
vt -0.839230 0.284656
vt -0.839230 0.715344
vt -0.779196 0.000000
vt -0.779196 1.000000
vt -1.314260 1.000000
vt -1.314260 0.000000
vt 1.429622 0.500000
vt 1.917948 0.500000
vt 1.096472 0.500000
vn -0.956800 -0.290900 0.000000
vn 0.000000 1.000000 0.000000
vn 0.000000 -1.000000 -0.000000
vn 0.000500 -1.000000 0.000000
vn 0.000000 -0.197000 0.980400
vn 0.000000 -0.197000 -0.980400
vn -0.061600 -0.274400 -0.959600
vn 0.001000 -1.000000 0.000000
vn -0.061600 -0.274400 0.959600
vn -0.001300 1.000000 0.000000
vn 0.685000 0.728600 0.000000
vn 0.000000 0.000000 -1.000000
vn -0.983200 -0.182300 0.000000
vn 0.000000 0.000000 1.000000
vn 0.430900 -0.359600 0.827600
vn 0.430900 -0.359600 -0.827600
vn -0.222400 0.975000 0.000000
vn 0.000000 -0.381300 -0.924400
vn 0.000000 -0.381300 0.924400
vn -0.132400 -0.420000 0.897800
vn -0.675500 -0.737400 0.000000
vn -0.132400 -0.420000 -0.897800
vn 0.315500 -0.525500 -0.790200
vn 0.315500 -0.525500 0.790200
usemtl 6b551d
s 1
f 23/5/11 24/6/11 25/7/11
f 23/5/11 25/7/11 26/8/11
f 19/9/12 20/10/12 15/11/12
f 19/9/12 15/11/12 16/12/12
f 34/13/13 31/14/14 32/15/13
f 34/13/13 32/15/13 33/16/13
f 20/10/15 22/17/15 17/18/15
f 20/10/15 17/18/15 15/11/15
f 16/12/16 18/19/16 21/20/16
f 16/12/16 21/20/16 19/9/16
f 19/9/17 21/20/17 24/6/17 23/5/17
f 31/14/14 34/13/13 35/21/18 36/22/18
f 22/17/19 20/10/19 26/8/19 25/7/19
f 28/23/20 27/24/20 29/25/20 30/26/20
f 20/10/21 19/9/21 27/24/21 28/23/21
f 19/9/22 23/5/22 29/25/22 27/24/22
f 23/5/23 26/8/23 30/26/23 29/25/23
f 26/8/24 20/10/24 28/23/24 30/26/24
f 15/11/25 17/18/25 14/27/25 13/28/25
f 33/16/13 32/15/13 37/29/13
f 18/19/26 16/12/26 13/28/26 14/27/26
f 16/12/27 15/11/27 13/28/27
f 21/20/28 18/19/28 32/15/28 31/14/28
f 17/18/29 22/17/29 34/13/29 33/16/29
f 22/17/30 25/7/30 35/21/30 34/13/30
f 25/7/31 24/6/31 36/22/31 35/21/31
f 24/6/32 21/20/32 31/14/32 36/22/32
f 18/19/33 14/27/33 37/29/33 32/15/33
f 14/27/34 17/18/34 33/16/34 37/29/34
o Mast
v -0.269354 2.422857 0.000000
v -0.269354 0.464683 0.000000
v -0.367173 2.422857 -0.030701
v -0.367173 2.422857 0.030701
v -0.367173 0.464683 -0.030701
v -0.367173 0.464683 0.030701
vt 0.000000 1.000000
vt 0.000000 0.000000
vt 1.000000 0.000000
vt 1.000000 1.000000
vn -1.000000 0.000000 0.000000
vn 0.000000 1.000000 0.000000
vn 0.000000 -1.000000 0.000000
vn 0.447200 0.000000 0.894400
vn 0.447200 -0.000000 -0.894400
usemtl 514630
s 1
f 40/30/35 42/31/35 43/32/35 41/33/35
f 40/30/36 41/31/36 38/32/36
f 43/30/37 42/31/37 39/32/37
f 41/30/38 43/31/38 39/32/38 38/33/38
f 38/30/39 39/31/39 42/32/39 40/33/39
