# Blender v2.80 (sub 75) OBJ File: ''
# www.blender.org
o Cube
v 1.050593 1.035508 -1.035024
v 1.079772 -0.944031 -0.651354
v 1.195060 0.924444 1.197765
v 0.813139 -1.033437 0.755084
v -1.210499 0.853908 -1.164781
v -1.207794 -0.777072 -0.892824
v -1.157912 0.751823 0.955009
v -1.035212 -0.995864 0.971125
vt 0.375000 0.000000
vt 0.625000 0.000000
vt 0.625000 0.250000
vt 0.375000 0.250000
vt 0.375000 0.250000
vt 0.625000 0.250000
vt 0.625000 0.500000
vt 0.375000 0.500000
vt 0.625000 0.750000
vt 0.375000 0.750000
vt 0.625000 0.750000
vt 0.625000 1.000000
vt 0.375000 1.000000
vt 0.125000 0.500000
vt 0.375000 0.500000
vt 0.375000 0.750000
vt 0.125000 0.750000
vt 0.625000 0.500000
vt 0.875000 0.500000
vt 0.875000 0.750000
vn -0.0806 0.9954 0.0524
vn -0.0026 -0.1142 0.9935
vn -0.9980 -0.0325 0.0538
vn -0.0486 -0.9943 -0.0951
vn 0.9956 -0.0896 0.0285
vn 0.0806 -0.1774 -0.9808
s off
f 1/1/1 5/2/1 7/3/1 3/4/1
f 4/5/2 3/6/2 7/7/2 8/8/2
f 8/8/3 7/7/3 5/9/3 6/10/3
f 6/10/4 2/11/4 4/12/4 8/13/4
f 2/14/5 1/15/5 3/16/5 4/17/5
f 6/18/6 5/19/6 1/20/6 2/11/6
