# Blender v2.80 (sub 75) OBJ File: ''
# www.blender.org
o Cube_Cube.002
v 1.024311 -1.693251 -1.095805
v 0.157061 -0.009785 -0.168023
v 0.168023 -0.009785 0.157061
v 1.095805 -1.693251 1.024311
v -0.157061 -0.009785 0.168023
v -1.024311 -1.693251 1.095805
v -0.168023 -0.009785 -0.157061
v -1.095805 -1.693251 -1.024311
v 1.024311 1.693251 -1.095805
v 1.095805 1.693251 1.024311
v -1.024311 1.693251 1.095805
v -1.095805 1.693251 -1.024311
v 1.024311 2.203241 -1.095805
v 1.095805 2.203241 1.024311
v -1.024311 2.203241 1.095805
v -1.095805 2.203241 -1.024311
v 1.024311 -2.214341 -1.095805
v 1.095805 -2.214342 1.024311
v -1.024311 -2.214342 1.095805
v -1.095805 -2.214341 -1.024311
vt 1.000000 0.500000
vt 1.000000 1.000000
vt 0.750000 1.000000
vt 0.750000 0.500000
vt 0.500000 1.000000
vt 0.500000 0.500000
vt 0.250000 1.000000
vt 0.250000 0.500000
vt 0.000000 1.000000
vt 0.000000 0.500000
vt 0.500000 0.500000
vt 0.750000 0.500000
vt 1.000000 0.500000
vt 0.750000 0.500000
vt 0.500000 0.500000
vt 0.490000 0.250000
vt 0.250000 0.010000
vt 0.010000 0.250000
vt 0.250000 0.490000
vt 0.250000 0.500000
vt 0.000000 0.500000
vt 0.500000 0.500000
vt 0.250000 0.500000
vt 0.750000 0.490000
vt 0.510000 0.250000
vt 0.750000 0.010000
vt 0.990000 0.250000
vt 0.750000 0.500000
vt 1.000000 0.500000
vt 0.000000 0.500000
vt 0.750000 0.490000
vt 0.990000 0.250000
vt 0.750000 0.010000
vt 0.510000 0.250000
vt 1.000000 0.500000
vt 0.250000 0.500000
vt 0.000000 0.500000
vn 0.8818 0.4707 -0.0297
vn 0.0297 0.4707 0.8818
vn -0.8818 0.4707 0.0297
vn -0.0297 0.4707 -0.8818
vn 0.7305 -0.0000 0.6829
vn -0.6829 -0.0000 0.7305
vn 0.8841 -0.4664 -0.0298
vn 0.0298 -0.4664 0.8841
vn 0.0000 -1.0000 -0.0000
vn -0.8841 -0.4664 0.0298
vn -0.0298 -0.4664 -0.8841
vn -0.7305 0.0000 -0.6829
vn 0.0000 1.0000 0.0000
vn 0.6829 0.0000 -0.7305
s 1
f 1/1/1 2/2/1 3/3/1 4/4/1
f 4/4/2 3/3/2 5/5/2 6/6/2
f 6/6/3 5/5/3 7/7/3 8/8/3
f 8/8/4 7/7/4 2/9/4 1/10/4
f 4/4/5 6/6/6 19/11/6 18/12/5
f 9/13/7 10/14/7 3/3/7 2/2/7
f 10/14/8 11/15/8 5/5/8 3/3/8
f 3/16/9 5/17/9 7/18/9 2/19/9
f 11/15/10 12/20/10 7/7/10 5/5/10
f 12/20/11 9/21/11 2/9/11 7/7/11
f 12/20/12 11/15/6 15/22/6 16/23/12
f 13/24/13 16/25/13 15/26/13 14/27/13
f 11/15/6 10/14/5 14/28/5 15/22/6
f 10/14/5 9/13/14 13/29/14 14/28/5
f 9/21/14 12/20/12 16/23/12 13/30/14
f 17/31/9 18/32/9 19/33/9 20/34/9
f 1/1/14 4/4/5 18/12/5 17/35/14
f 6/6/6 8/8/12 20/36/12 19/11/6
f 8/8/12 1/10/14 17/37/14 20/36/12