# Blender v2.80 (sub 75) OBJ File: ''
# www.blender.org
o Cube_Cube.002
v -1.000000 -1.000000 -1.000000
v 1.000000 -1.000000 1.000000
v 1.000000 -1.000000 -1.000000
v 1.000000 1.000000 -1.000000
v -1.000000 -1.000000 0.303123
v -1.000000 0.159386 -1.000000
v -0.122084 1.000000 -1.000000
v 1.000000 1.000000 0.207610
v 1.000000 0.295012 1.000000
v -0.352477 -1.000000 1.000000
vt 0.375000 0.087110
vt 0.519923 0.250000
vt 0.375000 0.250000
vt 0.625000 0.650951
vt 0.625000 0.359739
vt 0.375000 0.919060
vt 0.536876 0.750000
vt 0.375000 0.750000
vt 0.375000 0.500000
vt 0.625000 0.500000
vt 0.765260 0.500000
vt 0.125000 0.500000
vt 0.205940 0.750000
vt 0.125000 0.662890
vn -1.0000 0.0000 0.0000
vn -0.5818 0.6076 0.5406
vn 0.0000 0.0000 1.0000
vn 1.0000 0.0000 0.0000
vn 0.0000 1.0000 0.0000
vn 0.0000 0.0000 -1.0000
vn 0.0000 -1.0000 0.0000
s off
f 5/1/1 6/2/1 1/3/1
f 8/4/2 7/5/2 6/2/2 5/1/2 10/6/2 9/7/2
f 2/8/3 9/7/3 10/6/3
f 3/9/4 4/10/4 8/4/4 9/7/4 2/8/4
f 4/10/5 7/11/5 8/4/5
f 1/3/6 6/2/6 7/5/6 4/10/6 3/9/6
f 1/12/7 3/9/7 2/8/7 10/13/7 5/14/7
