# Blender v2.80 (sub 75) OBJ File: ''
# www.blender.org
o Cube_Cube.002
v -1.000000 1.095345 1.000000
v -1.000000 1.095345 -1.000000
v 1.000000 1.095345 1.000000
v 1.000000 1.095345 -1.000000
v 0.500000 0.707347 1.000000
v 0.500000 0.707347 -1.000000
v -0.500000 0.707347 -1.000000
v -0.500000 0.707347 1.000000
v 1.000000 0.707347 -0.500000
v -1.000000 0.707347 -0.500000
v 0.500000 0.707347 -0.500000
v -0.500000 0.707347 -0.500000
v -1.000000 0.707347 0.500000
v 1.000000 0.707347 0.500000
v 0.500000 0.707347 0.500000
v -0.500000 0.707347 0.500000
v -1.000000 -0.654164 0.500000
v -1.000000 -0.654164 1.000000
v -0.500000 -0.654164 -1.000000
v -1.000000 -0.654164 -1.000000
v 1.000000 -0.654164 -0.500000
v 1.000000 -0.654164 -1.000000
v 0.500000 -0.654164 1.000000
v 1.000000 -0.654164 1.000000
v 0.500000 -0.654164 -1.000000
v 0.500000 -0.654164 0.500000
v -0.500000 -0.654164 1.000000
v -0.500000 -0.654164 0.500000
v -1.000000 -0.654164 -0.500000
v 0.500000 -0.654164 -0.500000
v -0.500000 -0.654164 -0.500000
v 1.000000 -0.654164 0.500000
v 1.000000 1.095345 1.000000
v -1.000000 1.095345 -0.500000
v 1.000000 1.095345 -0.500000
v 1.000000 1.095345 0.500000
v -1.000000 1.095345 0.500000
v 0.500000 1.095345 -1.000000
v 0.500000 1.095345 1.000000
v -0.500000 1.095345 1.000000
v -0.500000 1.095345 -1.000000
vn 1.0000 0.0000 0.0000
vn -0.0000 0.0000 1.0000
vn -0.0000 0.0000 -1.0000
vn -1.0000 0.0000 0.0000
vn 0.0000 -1.0000 0.0000
vn 0.0000 1.0000 0.0000
s off
f 16//1 8//1 27//1 28//1
f 5//2 23//2 24//2 3//2 39//2
f 6//3 38//3 4//3 22//3 25//3
f 10//4 34//4 2//4 20//4 29//4
f 14//1 36//1 3//1 24//1 32//1
f 7//5 6//5 11//5 9//5 14//5 15//5 5//5 8//5 16//5 13//5 10//5 12//5
f 26//5 32//5 24//5 23//5
f 17//5 28//5 27//5 18//5
f 20//5 19//5 31//5 29//5
f 25//5 22//5 21//5 30//5
f 11//4 6//4 25//4 30//4
f 9//2 11//2 30//2 21//2
f 5//4 15//4 26//4 23//4
f 15//3 14//3 32//3 26//3
f 13//3 16//3 28//3 17//3
f 7//1 12//1 31//1 19//1
f 12//2 10//2 29//2 31//2
f 38//6 41//6 2//6 34//6 37//6 1//6 40//6 39//6 3//6 36//6 35//6 4//6
f 8//2 5//2 39//2 40//2
f 35//1 36//1 14//1 9//1
f 4//1 35//1 9//1 21//1 22//1
f 7//3 19//3 20//3 2//3 41//3
f 6//3 7//3 41//3 38//3
f 37//4 34//4 10//4 13//4
f 1//4 37//4 13//4 17//4 18//4
f 27//2 8//2 40//2 1//2 18//2