# Blender v2.80 (sub 75) OBJ File: 'Guitar.blend'
# www.blender.org
o Cube_Cube.001
v -2.516708 0.064472 -0.957022
v -2.647918 0.686075 -1.000000
v -0.613593 1.675521 -0.751805
v 2.350606 1.000000 -1.000000
v 2.102421 0.064472 -0.957022
v 2.102421 0.064472 0.957022
v 2.350606 1.000000 1.000000
v -0.613593 1.675521 0.751805
v -2.647918 0.686075 1.000000
v -2.516708 0.064472 0.957022
v -2.913727 0.064472 -0.478511
v -3.044937 0.586493 -0.500000
v -3.137856 0.548209 0.000000
v -3.044937 0.586493 0.500000
v -2.229160 -0.172058 -0.786480
v 1.697379 -0.172058 -0.786480
v 1.697379 -0.172058 0.786480
v -2.229160 -0.172058 0.786480
v -2.514255 -0.172058 0.442866
v -2.600253 -0.172058 -0.000000
v -2.514255 -0.172058 -0.442866
v -2.913727 0.064472 0.478511
v -3.006646 0.064472 0.000000
vt 0.375000 0.500000
vt 0.375000 1.000000
vt 0.625000 0.250000
vt 0.625000 0.500000
vt 0.375000 0.750000
vt 0.375000 0.750000
vt 0.625000 0.000000
vt 0.625000 0.750000
vt 0.375000 0.687500
vt 0.625000 0.687500
vt 0.625000 0.750000
vt 0.625000 1.000000
vt 0.125000 0.500000
vt 0.250000 0.500000
vt 0.250000 0.750000
vt 0.125000 0.750000
vt 0.375000 0.500000
vt 0.375000 0.562500
vt 0.375000 0.625000
vt 0.375000 0.687500
vt 0.375000 0.750000
vt 0.644736 0.522275
vt 0.853418 0.522275
vt 0.853418 0.727725
vt 0.644736 0.727725
vt 0.641117 0.682844
vt 0.641281 0.625000
vt 0.641117 0.567156
vt 0.625000 0.375000
vt 0.625000 0.125000
vt 0.625000 0.250000
vt 0.375000 0.562500
vt 0.625000 0.562500
vt 0.625000 0.625000
vt 0.375000 0.625000
vt 0.625000 0.625000
vt 0.875000 0.750000
vt 0.625000 0.750000
vt 0.625000 0.687500
vt 0.875000 0.500000
vt 0.625000 0.500000
vt 0.625000 0.562500
vn 0.0018 -0.0553 0.9985
vn -0.0019 0.0087 1.0000
vn -0.0025 0.0183 0.9998
vn 0.0018 -0.0553 -0.9985
vn -0.0025 0.0183 -0.9998
vn -0.0019 0.0087 -1.0000
vn -0.7492 -0.2074 -0.6291
vn 0.9666 -0.2564 -0.0000
vn 0.2222 0.9750 0.0000
vn -0.4120 0.9112 0.0000
vn 0.0000 -1.0000 -0.0000
vn -0.0174 0.2767 0.9608
vn -0.0174 0.2767 -0.9608
vn -0.9490 -0.2517 0.1901
vn -0.7492 -0.2074 0.6291
vn -0.9490 -0.2517 -0.1901
vn -0.9666 -0.2563 -0.0000
vn 0.0000 -0.5848 0.8111
vn -0.4482 -0.8129 0.3718
vn 0.5043 -0.8635 -0.0000
vn 0.0000 -0.5848 -0.8111
vn -0.5006 -0.8602 -0.0972
vn -0.5006 -0.8602 0.0972
vn -0.4482 -0.8129 -0.3718
s 1
f 10/1/1 6/2/1 7/3/2 9/4/3
f 5/5/4 1/6/4 2/7/5 4/8/6
f 11/9/7 12/10/7 2/11/7 1/6/7
f 5/5/8 4/8/8 7/12/8 6/2/8
f 4/13/9 3/14/9 8/15/9 7/16/9
f 3/14/10 2/17/10 12/18/10 13/19/10 14/20/10 9/21/10 8/15/10
f 15/22/11 16/23/11 17/24/11 18/25/11 19/26/11 20/27/11 21/28/11
f 7/3/2 8/29/12 9/4/3
f 3/30/13 4/31/6 2/7/5
f 22/32/14 14/33/14 13/34/14 23/35/14
f 10/1/15 9/4/15 14/33/15 22/32/15
f 23/35/16 13/34/16 12/10/16 11/9/16
f 13/19/17 12/18/17 11/9/17 23/36/17 22/32/17 14/33/17
f 18/25/18 17/24/18 6/37/18 10/38/18
f 19/26/19 18/25/19 10/38/19 22/39/19
f 17/24/20 16/23/20 5/40/20 6/37/20
f 16/23/21 15/22/21 1/41/21 5/40/21
f 21/28/22 20/27/22 23/36/22 11/42/22
f 20/27/23 19/26/23 22/39/23 23/36/23
f 15/22/24 21/28/24 11/42/24 1/41/24
