# Blender v2.80 (sub 75) OBJ File: ''
# www.blender.org
o Cube
v 1.000000 0.581273 -1.000000
v 1.000000 -1.000000 -1.000000
v -1.260886 2.715640 -1.260886
v 1.000000 -1.000000 1.000000
v -1.000000 0.581273 -1.000000
v -1.000000 -1.000000 -1.000000
v 1.260886 2.715640 -1.260886
v -1.000000 -1.000000 1.000000
v 1.000000 -1.000000 -4.542876
v -1.000000 -1.000000 -4.542876
v 1.000000 0.581273 -4.542876
v -1.000000 0.581273 -4.542876
v 1.000000 2.099662 1.000000
v -1.000000 2.099662 1.000000
v 1.000000 2.099662 -1.000000
v -1.000000 2.099662 -1.000000
v -1.167209 -1.257272 -0.893181
v -1.167209 -1.257272 1.079417
v 1.167209 -1.257272 1.079417
v 1.167209 -1.257272 -0.893181
v 1.167209 -1.257272 -4.849892
v -1.167209 -1.257272 -4.849892
v 0.000000 0.000000 -5.068783
v 1.000000 1.000000 -1.000000
v -1.260886 2.438661 1.260886
v -1.000000 1.000000 -1.000000
v 1.260886 2.438661 1.260886
v -0.333333 1.000000 -1.000000
v 0.333333 1.000000 -1.000000
v -0.333333 1.000000 -4.542876
v 0.333333 1.000000 -4.542876
v -0.333333 1.000000 -3.258364
v -0.333333 1.000000 -3.855075
v 0.333333 1.000000 -3.258364
v 0.333333 1.000000 -3.855075
v -0.333333 1.911595 -3.258364
v -0.333333 1.911595 -3.855075
v 0.333333 1.911595 -3.258364
v 0.333333 1.911595 -3.855075
v -0.456015 2.216660 -3.148556
v -0.456015 2.216660 -3.964884
v 0.456015 2.216660 -3.148556
v 0.456015 2.216660 -3.964884
v 1.260886 2.438661 -1.260886
v -1.260886 2.438661 -1.260886
v -1.260886 2.715640 1.260886
v 1.260886 2.715640 1.260886
vt 0.375000 0.500000
vt 0.375000 0.500000
vt 0.375000 0.750000
vt 0.125000 0.750000
vt 0.125000 0.500000
vt 0.375000 0.500000
vt 0.625000 0.500000
vt 0.625000 0.750000
vt 0.625000 0.750000
vt 0.375000 0.750000
vt 0.375000 0.000000
vt 0.625000 0.000000
vt 0.625000 0.000000
vt 0.375000 0.000000
vt 0.375000 0.750000
vt 0.375000 0.750000
vt 0.625000 0.750000
vt 0.625000 0.750000
vt 0.625000 1.000000
vt 0.375000 1.000000
vt 0.625000 0.250000
vt 0.375000 0.250000
vt 0.375000 0.500000
vt 0.125000 0.500000
vt 0.375000 0.500000
vt 0.458333 0.000000
vt 0.375000 0.000000
vt 0.625000 0.000000
vt 0.625000 0.750000
vt 0.625000 0.750000
vt 0.375000 0.750000
vt 0.125000 0.750000
vt 0.125000 0.500000
vt 0.458333 0.000000
vt 0.375000 0.000000
vt 0.458333 0.000000
vt 0.458333 0.000000
vt 0.625000 0.500000
vt 0.625000 0.750000
vt 0.375000 0.750000
vt 0.375000 0.500000
vt 0.375000 0.500000
vt 0.375000 0.750000
vt 0.375000 0.000000
vt 0.625000 0.000000
vt 0.625000 0.000000
vt 0.375000 0.000000
vt 0.625000 0.250000
vt 0.625000 0.250000
vt 0.625000 0.500000
vt 0.375000 0.500000
vt 0.125000 0.500000
vt 0.625000 0.500000
vt 0.625000 0.750000
vt 0.625000 0.500000
vt 0.375000 0.250000
vt 0.375000 0.250000
vt 0.375000 0.500000
vt 0.375000 0.750000
vt 0.625000 0.750000
vt 0.625000 0.000000
vt 0.541667 0.000000
vt 0.541667 0.000000
vt 0.541667 0.000000
vt 0.541667 0.000000
vt 0.625000 0.000000
vt 0.541667 0.000000
vt 0.458333 0.000000
vt 0.541667 0.000000
vt 0.458333 0.000000
vt 0.458333 0.000000
vt 0.541667 0.000000
vt 0.458333 0.000000
vt 0.541667 0.000000
vt 0.000000 0.000000
vt 0.000000 0.000000
vt 0.625000 0.750000
vt 0.625000 0.250000
vn 1.0000 0.0000 0.0000
vn -1.0000 0.0000 0.0000
vn 0.0000 0.0000 -1.0000
vn 0.0000 -1.0000 0.0000
vn 0.0000 1.0000 0.0000
vn 0.2430 0.3868 -0.8896
vn 0.8385 0.5449 0.0000
vn 0.5319 0.8468 0.0000
vn -0.7925 -0.6099 0.0000
vn 0.0000 0.0000 1.0000
vn -0.8385 0.5449 0.0000
vn 0.0000 0.7665 -0.6423
vn 0.0000 0.2950 0.9555
vn 0.4655 0.0000 -0.8851
vn -0.4655 0.0000 -0.8851
vn 0.0000 -0.4655 -0.8851
vn -0.5319 0.8468 0.0000
vn 0.0000 -0.3387 0.9409
vn -0.9278 -0.3731 0.0000
vn 0.0000 -0.3387 -0.9409
vn 0.9278 -0.3731 0.0000
vn -0.2430 0.3868 -0.8896
vn 0.0000 0.4655 -0.8851
vn 0.0000 -0.6099 0.7925
vn 0.0000 -0.6099 -0.7925
vn 0.7925 -0.6099 0.0000
s off
f 24/1/1 15/2/1 13/3/1 4/4/1 2/5/1
f 8/6/2 14/7/2 16/8/2 26/9/2 6/10/2
f 44/11/3 45/12/3 3/13/3 7/14/3
f 17/15/4 22/16/4 21/17/4 20/18/4 19/19/4 18/20/4
f 7/14/5 3/13/5 46/21/5 47/22/5
f 1/23/1 2/5/1 9/24/1 11/25/1
f 31/26/6 11/27/6 23/28/6
f 6/10/2 5/29/2 12/30/2 10/31/2
f 2/5/7 4/4/7 19/32/7 20/33/7
f 29/34/8 1/35/8 11/27/8 31/26/8 35/36/8 34/37/8
f 16/8/9 14/7/9 25/38/9 45/39/9
f 27/40/1 44/41/1 7/42/1 47/43/1
f 24/44/3 26/45/3 16/46/3 15/47/3
f 25/38/10 27/48/10 47/49/10 46/50/10
f 8/6/11 6/10/11 17/15/11 18/51/11
f 9/24/7 2/5/7 20/33/7 21/52/7
f 10/53/12 9/54/12 21/17/12 22/55/12
f 6/10/11 10/31/11 22/16/11 17/15/11
f 4/56/13 8/6/13 18/51/13 19/57/13
f 11/25/14 9/24/14 23/58/14
f 10/31/15 12/30/15 23/59/15
f 9/54/16 10/53/16 23/60/16
f 5/61/17 28/62/17 32/63/17 33/64/17 30/65/17 12/66/17
f 33/64/5 35/36/5 31/26/5 30/65/5
f 28/62/5 29/34/5 34/37/5 32/63/5
f 35/36/3 33/64/3 37/67/3 39/68/3
f 36/69/18 38/70/18 42/71/18 40/72/18
f 34/37/1 35/36/1 39/68/1 38/70/1
f 33/64/2 32/63/2 36/69/2 37/67/2
f 32/63/10 34/37/10 38/70/10 36/69/10
f 40/72/5 42/71/5 43/73/5 41/74/5
f 37/67/19 36/69/19 40/72/19 41/74/19
f 39/68/20 37/67/20 41/74/20 43/73/20
f 38/70/21 39/68/21 43/73/21 42/71/21
f 12/66/22 30/65/22 23/28/22
f 30/65/23 31/26/23 23/28/23
f 29/34/3 24/75/3 1/35/3
f 26/76/3 28/62/3 5/61/3
f 45/39/2 25/38/2 46/50/2 3/77/2
f 14/7/24 13/78/24 27/48/24 25/38/24
f 15/47/25 16/46/25 45/12/25 44/11/25
f 13/3/26 15/2/26 44/41/26 27/40/26
f 4/56/10 13/78/10 14/7/10 8/6/10
