# Blender v2.80 (sub 75) OBJ File: ''
# www.blender.org
o Cube
v 0.503339 0.503339 -1.000000
v 0.503339 1.000000 -0.503339
v 1.000000 0.503339 -0.503339
v 0.503339 -1.000000 -0.503339
v 0.503339 -0.503339 -1.000000
v 1.000000 -0.503339 -0.503339
v 1.000000 0.503339 0.503339
v 0.503339 1.000000 0.503339
v 0.503339 0.503339 1.000000
v 1.000000 -0.503339 0.503339
v 0.503339 -0.503339 1.000000
v 0.503339 -1.000000 0.503339
v -0.503339 0.503339 -1.000000
v -1.000000 0.503339 -0.503339
v -0.503339 1.000000 -0.503339
v -1.000000 -0.503339 -0.503339
v -0.503339 -0.503339 -1.000000
v -0.503339 -1.000000 -0.503339
v -1.000000 0.503339 0.503339
v -0.503339 0.503339 1.000000
v -0.503339 1.000000 0.503339
v -0.503339 -1.000000 0.503339
v -0.503339 -0.503339 1.000000
v -1.000000 -0.503339 0.503339
vt 0.437083 0.812083
vt 0.562917 0.812083
vt 0.562917 0.937917
vt 0.437083 0.937917
vt 0.437083 0.562083
vt 0.562917 0.562083
vt 0.562917 0.687917
vt 0.437083 0.687917
vt 0.437083 0.312083
vt 0.562917 0.312083
vt 0.562917 0.437917
vt 0.437083 0.437917
vt 0.437083 0.062083
vt 0.562917 0.062083
vt 0.562917 0.187917
vt 0.437083 0.187917
vt 0.187083 0.562083
vt 0.312917 0.562083
vt 0.312917 0.687917
vt 0.187083 0.687917
vt 0.812917 0.687917
vt 0.875000 0.687917
vt 0.812917 0.750000
vt 0.562917 0.750000
vt 0.625000 0.812083
vt 0.375000 0.687917
vt 0.312917 0.750000
vt 0.187083 0.750000
vt 0.125000 0.687917
vt 0.812917 0.562083
vt 0.812917 0.500000
vt 0.875000 0.562083
vt 0.437083 0.750000
vt 0.375000 0.687917
vt 0.562917 0.500000
vt 0.625000 0.562083
vt 0.437083 1.000000
vt 0.375000 0.937917
vt 0.375000 0.812083
vt 0.187083 0.500000
vt 0.312917 0.500000
vt 0.437083 0.250000
vt 0.562917 0.250000
vt 0.687083 0.562083
vt 0.687083 0.500000
vt 0.562917 0.250000
vt 0.437083 0.250000
vt 0.375000 0.187917
vt 0.375000 0.062083
vt 0.562917 1.000000
vt 0.625000 0.062083
vt 0.625000 0.187917
vt 0.437083 0.000000
vt 0.562917 0.000000
vt 0.625000 0.937917
vt 0.687083 0.687917
vn 0.0000 -1.0000 0.0000
vn -1.0000 0.0000 0.0000
vn 0.0000 0.0000 1.0000
vn 0.0000 1.0000 0.0000
vn 1.0000 0.0000 0.0000
vn 0.5774 0.5774 -0.5774
vn 0.5774 -0.5774 -0.5774
vn 0.5774 0.5774 0.5774
vn 0.5774 -0.5774 0.5774
vn -0.5774 0.5774 -0.5774
vn -0.5774 -0.5774 -0.5774
vn -0.5774 0.5774 0.5774
vn -0.5774 -0.5774 0.5774
vn -0.7071 -0.7071 0.0000
vn 0.0000 -0.7071 -0.7071
vn 0.7071 0.0000 -0.7071
vn -0.7071 0.0000 0.7071
vn 0.7071 0.0000 0.7071
vn -0.7071 0.0000 -0.7071
vn 0.0000 0.7071 0.7071
vn 0.7071 0.7071 0.0000
vn 0.0000 -0.7071 0.7071
vn -0.7071 0.7071 0.0000
vn 0.0000 0.7071 -0.7071
vn 0.7071 -0.7071 0.0000
vn 0.0000 0.0000 -1.0000
s off
f 18/1/1 4/2/1 12/3/1 22/4/1
f 24/5/2 19/6/2 14/7/2 16/8/2
f 11/9/3 9/10/3 20/11/3 23/12/3
f 2/13/4 15/14/4 21/15/4 8/16/4
f 6/17/5 3/18/5 7/19/5 10/20/5
f 1/21/6 2/22/6 3/23/6
f 4/2/7 5/24/7 6/25/7
f 7/19/8 8/26/8 9/27/8
f 10/20/9 11/28/9 12/29/9
f 13/30/10 14/31/10 15/32/10
f 16/8/11 17/33/11 18/34/11
f 19/6/12 20/35/12 21/36/12
f 22/4/13 23/37/13 24/38/13
f 18/1/14 22/4/14 24/38/14 16/39/14
f 4/2/15 18/1/15 17/33/15 5/24/15
f 3/18/16 6/17/16 5/40/16 1/41/16
f 23/12/17 20/11/17 19/6/17 24/5/17
f 9/10/18 11/9/18 10/42/18 7/43/18
f 13/30/19 17/44/19 16/45/19 14/31/19
f 8/16/20 21/15/20 20/46/20 9/47/20
f 2/13/21 8/16/21 7/48/21 3/49/21
f 22/4/22 12/3/22 11/50/22 23/37/22
f 21/15/23 15/14/23 14/51/23 19/52/23
f 15/14/24 2/13/24 1/53/24 13/54/24
f 12/3/25 4/2/25 6/25/25 10/55/25
f 17/44/26 13/30/26 1/21/26 5/56/26
