# Blender v2.80 (sub 75) OBJ File: ''
# www.blender.org
o Cube_Cube.002
v -2.617619 -1.000000 -2.870456
v -2.617619 2.000160 -2.870456
v -2.617619 2.000160 -4.870456
v -2.617619 -0.999999 -4.870456
v 2.617619 2.000160 -4.870456
v 2.617619 -0.999999 -4.870456
v 2.617619 -1.000000 -2.870456
v 0.000000 -1.000000 -2.870456
v 0.000000 2.000160 -2.870456
v 1.308809 4.290646 -3.870455
v -2.617619 4.290646 -3.870455
v 0.000000 -1.000001 4.890394
v -4.357052 2.000158 4.890395
v -4.357052 -1.000001 4.890394
v 2.617619 -1.000001 4.890394
v 2.617619 2.000158 4.890395
v 0.000000 -1.000000 2.062881
v -4.357052 2.000159 2.062881
v -4.357052 4.290645 3.476638
v 0.000000 2.000159 2.062881
v -4.357052 -1.000000 2.062881
v 1.308809 4.290645 3.476638
vt 0.375000 0.000000
vt 0.625000 0.000000
vt 0.625000 0.250000
vt 0.375000 0.250000
vt 0.625000 0.500000
vt 0.375000 0.500000
vt 0.375000 0.875000
vt 0.625000 0.875000
vt 0.625000 1.000000
vt 0.375000 1.000000
vt 0.125000 0.500000
vt 0.375000 0.750000
vt 0.250000 0.750000
vt 0.125000 0.750000
vt 0.625000 0.875000
vt 0.625000 1.000000
vt 0.375000 0.750000
vt 0.250000 0.750000
vt 0.250000 0.750000
vt 0.625000 0.875000
vt 0.625000 0.875000
vt 0.625000 0.875000
vt 0.625000 0.750000
vt 0.375000 0.875000
vt 0.625000 0.875000
vt 0.375000 0.875000
vt 0.375000 0.875000
vt 0.250000 0.750000
vt 0.250000 0.750000
vt 0.625000 0.875000
vt 0.625000 0.250000
vt 0.625000 0.500000
vn -1.0000 0.0000 0.0000
vn 0.0000 0.0000 -1.0000
vn 0.0000 -0.0000 1.0000
vn 0.0000 -1.0000 -0.0000
vn 0.0000 0.4001 0.9165
vn 0.9748 0.2231 0.0000
vn 0.9780 0.2088 0.0000
vn 1.0000 0.0000 0.0000
vn 0.0000 0.5252 0.8510
vn 0.0000 0.2730 0.9620
vn 0.0000 0.2268 0.9739
vn 0.0000 0.4001 -0.9165
vn 0.8682 0.4961 0.0000
vn 0.0000 0.5252 -0.8510
vn -0.8682 0.4961 0.0000
s 1
f 1/1/1 2/2/1 3/3/1 4/4/1
f 4/4/2 3/3/2 5/5/2 6/6/2
f 8/7/3 9/8/3 2/9/3 1/10/3
f 4/11/4 6/6/4 7/12/4 8/13/4 1/14/4
f 2/9/5 9/8/5 10/15/5 11/16/5
f 8/13/4 7/12/4 15/17/4 12/18/4 17/19/4
f 18/20/1 13/21/1 19/22/1
f 5/5/6 16/23/7 15/17/8 6/6/8
f 9/8/1 8/7/1 17/24/1 20/25/1
f 18/20/1 21/26/1 14/27/1 13/21/1
f 20/25/2 17/24/2 21/26/2 18/20/2
f 17/19/4 12/18/4 14/28/4 21/29/4
f 19/22/9 13/21/10 16/23/11 22/30/9
f 5/5/12 3/3/12 11/31/12 10/32/12
f 22/30/13 16/23/7 5/5/6 10/15/13
f 3/3/1 2/2/1 11/31/1
f 20/25/14 18/20/14 19/22/14 22/30/14
f 13/21/10 14/27/3 15/17/3 16/23/11
f 9/8/15 20/25/15 22/30/15 10/15/15
