# Blender v2.80 (sub 75) OBJ File: ''
# www.blender.org
o Cube
v 1.000000 -1.000000 -1.000000
v 1.000000 -1.000000 1.000000
v -1.000000 -1.000000 -1.000000
v -1.000000 -1.000000 1.000000
v 0.870376 0.357752 -0.707412
v 1.497340 -0.269211 -1.334375
v 0.888417 0.336328 0.257139
v 1.497340 -0.269211 0.665625
v 0.124303 0.357752 -0.707412
v -0.502660 -0.269211 -1.334375
v 0.079292 0.571501 0.262217
v -1.115838 -0.165744 0.927543
vn 0.0604 0.2373 0.9696
vn -0.9694 0.1988 -0.1443
vn 0.0000 -1.0000 0.0000
vn 0.1485 0.9843 -0.0958
vn 0.8267 -0.5626 0.0000
vn 0.1206 0.5874 0.8003
vn 0.7062 0.7080 0.0008
vn -0.5902 0.7828 -0.1971
vn 0.0000 0.7071 -0.7071
vn 0.0000 -0.4161 -0.9093
s off
f 2//1 8//1 12//1 4//1
f 4//2 12//2 10//2 3//2
f 3//3 1//3 2//3 4//3
f 5//4 9//4 11//4 7//4
f 1//5 6//5 8//5 2//5
f 7//6 11//6 12//6 8//6
f 5//7 7//7 8//7 6//7
f 11//8 9//8 10//8 12//8
f 9//9 5//9 6//9 10//9
f 3//10 10//10 6//10 1//10
